<svg xmlns="http://www.w3.org/2000/svg" width="77" height="77" viewBox="0 0 77 77" fill="none"><path d="M38.5 77C59.763 77 77 59.763 77 38.5C77 17.237 59.763 0 38.5 0C17.237 0 0 17.237 0 38.5C0 59.763 17.237 77 38.5 77Z" fill="#FF9C64"></path><path d="M76.4047 31.724L56.8323 12.126L10.1611 40.1594L26.5853 56.6008L20.5706 69.7642L25.5816 74.7763C29.6197 76.2145 33.9677 77 38.4995 77C59.7625 77 76.9995 59.7629 76.9995 38.5C76.9995 36.188 76.7953 33.9239 76.4047 31.724Z" fill="#FFB454"></path><path d="M30.4259 4.79297C22.3096 4.79297 15.7301 11.2735 15.7301 19.2676C15.7301 20.0877 15.8004 20.8915 15.9334 21.6743C10.8251 22.6902 6.97852 27.1355 6.97852 32.4664C6.97852 38.5474 11.9835 43.4769 18.1575 43.4769H38.5422L51.0675 29.9846L38.5422 7.20087C36.2167 5.67997 33.4268 4.79297 30.4259 4.79297Z" fill="white"></path><path d="M60.4052 21.5549C60.4089 21.425 60.4152 21.2955 60.4152 21.1646C60.4152 13.7985 54.3526 7.8271 46.8738 7.8271C44.7498 7.8271 42.7406 8.30985 40.9515 9.16828C40.2231 8.43182 39.415 7.7722 38.542 7.20117V43.4772H58.9267C65.1007 43.4772 70.1057 38.5475 70.1057 32.4666C70.1057 26.8796 65.8798 22.2678 60.4052 21.5549Z" fill="#E5E5E5"></path><path d="M24.4111 27.9678V60.5533H38.4996L50.3463 44.2606L38.4996 27.9678H24.4111Z" fill="#38336B"></path><path d="M38.5 27.9678H52.3018V60.5532H38.5V27.9678Z" fill="#2B0552"></path><path d="M19.9922 21.0565V30.3488C19.9922 31.5402 20.958 32.5059 22.1492 32.5059H38.4997L43.6513 25.7026L38.4997 18.8994H22.1494C20.958 18.8994 19.9922 19.8651 19.9922 21.0565Z" fill="#524798"></path><path d="M54.8503 32.5059C56.0417 32.5059 57.0074 31.54 57.0074 30.3488V21.0565C57.0074 19.8651 56.0416 18.8994 54.8503 18.8994H38.5V32.5059H54.8503Z" fill="#38336B"></path><path d="M19.9922 39.1981V49.3215C19.9922 50.5127 20.958 51.4785 22.1492 51.4785H38.4997L44.5006 44.2598L38.4997 37.041H22.1494C20.958 37.041 19.9922 38.0067 19.9922 39.1981Z" fill="#524798"></path><path d="M54.8503 51.4785C56.0417 51.4785 57.0074 50.5127 57.0074 49.3215V39.1981C57.0074 38.0067 56.0416 37.041 54.8503 37.041H38.5V51.4785H54.8503Z" fill="#38336B"></path><path d="M24.4111 23.4346H34.7315V27.97H24.4111V23.4346Z" fill="#00E4EF"></path><path d="M24.4111 41.9922H34.7315V46.5277H24.4111V41.9922Z" fill="#00E4EF"></path><path d="M44.4754 46.0572C45.4636 45.2882 45.6413 43.8637 44.8723 42.8756C44.1033 41.8874 42.6788 41.7097 41.6906 42.4787C40.7024 43.2477 40.5248 44.6722 41.2938 45.6603C42.0628 46.6485 43.4872 46.8262 44.4754 46.0572Z" fill="#FFB454"></path><path d="M52.5537 44.8054C52.8418 43.5868 52.0874 42.3654 50.8688 42.0773C49.6502 41.7892 48.4288 42.5436 48.1407 43.7622C47.8527 44.9809 48.607 46.2023 49.8257 46.4903C51.0443 46.7784 52.2657 46.024 52.5537 44.8054Z" fill="#FFB454"></path><path d="M45.2957 26.1741C45.555 24.9492 44.7722 23.7461 43.5473 23.4868C42.3224 23.2276 41.1193 24.0104 40.86 25.2353C40.6008 26.4602 41.3836 27.6633 42.6085 27.9225C43.8334 28.1818 45.0365 27.399 45.2957 26.1741Z" fill="#FFB454"></path><path d="M51.9417 27.3084C52.8272 26.4229 52.8272 24.9873 51.9417 24.1018C51.0562 23.2163 49.6206 23.2163 48.7351 24.1018C47.8497 24.9873 47.8497 26.4229 48.7351 27.3084C49.6206 28.1938 51.0562 28.1938 51.9417 27.3084Z" fill="#FFB454"></path><path d="M19.9922 58.1709V68.2941C19.9922 69.4855 20.958 70.4512 22.1492 70.4512H38.4997L44.2458 63.2324L38.4997 56.0137H22.1494C20.958 56.0137 19.9922 56.9795 19.9922 58.1709Z" fill="#524798"></path><path d="M54.8503 70.451C56.0417 70.451 57.0074 69.4852 57.0074 68.294V58.1707C57.0074 56.9793 56.0416 56.0137 54.8503 56.0137H38.5V70.4512H54.8503V70.451Z" fill="#38336B"></path><path d="M24.4111 60.9648H34.7315V65.5003H24.4111V60.9648Z" fill="#00E4EF"></path><path d="M44.4705 65.0279C45.4587 64.2589 45.6364 62.8344 44.8674 61.8463C44.0984 60.8581 42.6739 60.6804 41.6857 61.4494C40.6976 62.2184 40.5199 63.6429 41.2889 64.631C42.0579 65.6192 43.4823 65.7969 44.4705 65.0279Z" fill="#FFB454"></path><path d="M52.5498 63.782C52.8379 62.5633 52.0835 61.3419 50.8649 61.0539C49.6463 60.7658 48.4249 61.5202 48.1368 62.7388C47.8488 63.9574 48.6031 65.1788 49.8217 65.4669C51.0404 65.755 52.2618 65.0006 52.5498 63.782Z" fill="#FFB454"></path></svg>