<svg xmlns="http://www.w3.org/2000/svg" width="45" height="45" viewBox="0 0 45 45" fill="none"><g clip-path="url(#clip0_510_9)"><path d="M12.4258 13.6068V31.3945C12.4258 32.6035 16.9362 33.5814 22.5009 33.5814C28.0656 33.5814 32.5759 32.6035 32.5759 31.3945V13.6068C32.5759 12.3978 28.0656 11.4199 22.5009 11.4199C16.9362 11.4199 12.4258 12.3978 12.4258 13.6068Z" fill="#FC5D3D"></path><path d="M1.28711 22.5016C1.28711 18.5649 2.36957 14.6033 4.61641 11.0934L5.18418 14.5915L8.31133 13.5808C6.68359 16.1647 5.74141 19.2233 5.74141 22.5016C5.74141 31.7565 13.2438 39.2589 22.4986 39.2589C31.7535 39.2589 39.2559 31.7565 39.2559 22.5016C39.2559 13.2092 31.6864 5.74865 22.5881 5.74583C18.5703 5.7446 14.9833 7.07456 12.0977 9.362L13.3721 10.6364L7.26367 11.002L7.63106 4.89365L8.9336 6.19618C12.9511 2.84738 17.9385 1.23915 22.5002 1.2882C34.7184 1.41933 43.7102 11.1595 43.7102 22.5016C43.7102 34.2157 34.2127 43.7132 22.4986 43.7132C10.7846 43.7132 1.28711 34.2157 1.28711 22.5016Z" fill="#72C3E9"></path><path d="M14.0953 30.8297C13.9826 30.7469 13.916 30.6154 13.916 30.4755V16.8145C13.916 16.5717 14.1127 16.375 14.3555 16.375C14.5982 16.375 14.7949 16.5717 14.7949 16.8145V30.2257C16.873 31.2487 23.9287 31.7437 28.6286 30.7643C28.8666 30.7147 29.0989 30.8673 29.1483 31.1049C29.1979 31.3426 29.0453 31.5753 28.8077 31.6247C23.7453 32.6796 15.8259 32.1007 14.0953 30.8297ZM30.0003 30.8815C29.9089 30.6567 30.0176 30.4004 30.2424 30.3092C30.4692 30.2172 30.5734 30.1518 30.6152 30.1213C30.8109 29.9775 31.0861 30.02 31.2294 30.2157C31.373 30.4113 31.3307 30.6864 31.135 30.8298C31.0021 30.9274 30.813 31.0262 30.5727 31.1236C30.3477 31.215 30.0914 31.1063 30.0003 30.8815Z" fill="#FFCBC3"></path><path d="M22.498 42.6281C11.3999 42.6281 2.37109 33.5993 2.37109 22.5012C2.37109 20.9891 2.53949 19.4818 2.87154 18.0208C2.92551 17.7841 3.16105 17.6354 3.39748 17.6897C3.63408 17.7435 3.78227 17.979 3.72865 18.2154C3.41102 19.6127 3.25 21.0545 3.25 22.5012C3.25 33.1147 11.8847 41.7492 22.498 41.7492C33.1115 41.7492 41.7461 33.1147 41.7461 22.5012C41.7461 11.8877 33.1115 3.25311 22.498 3.25311C18.0599 3.25311 13.7292 4.79963 10.3036 7.60791C10.1158 7.76172 9.83898 7.7343 9.685 7.54656C9.53119 7.359 9.55861 7.08197 9.74635 6.92799C13.3286 3.99139 17.8572 2.37402 22.4979 2.37402C33.596 2.37402 42.6248 11.4029 42.6248 22.501C42.6248 33.5991 33.5962 42.6281 22.498 42.6281ZM3.63092 16.8419C3.40012 16.767 3.27355 16.5191 3.34844 16.2883C3.4235 16.0568 3.50436 15.8225 3.58855 15.5917C3.67205 15.3637 3.92482 15.2468 4.15229 15.33C4.3801 15.4133 4.49752 15.6655 4.4142 15.8935C4.33369 16.114 4.25635 16.3381 4.18445 16.5596C4.1101 16.7886 3.86383 16.9175 3.63092 16.8419Z" fill="#C5E5FF"></path><path d="M28.9388 20.8338C28.6998 20.8742 28.538 21.1011 28.5785 21.34C28.6154 21.5634 28.8203 21.7373 29.0847 21.7006C29.3283 21.6598 29.4846 21.4295 29.4451 21.1924C29.4046 20.9568 29.1779 20.7914 28.9388 20.8338Z" fill="black"></path><path d="M15.8519 33.042C15.8115 33.281 15.9732 33.5078 16.2123 33.55C16.4692 33.5878 16.6807 33.418 16.7185 33.1896C16.7589 32.9508 16.5972 32.724 16.3599 32.6834C16.1208 32.641 15.8923 32.8064 15.8519 33.042Z" fill="black"></path><path d="M33.0133 13.6055C33.0316 10.0932 11.9675 10.1125 11.9863 13.6055V31.3945C11.98 32.3939 13.5406 32.9061 14.4508 33.1664C14.6811 33.2297 14.9272 33.0873 14.9904 32.8605C15.0555 32.6268 14.9184 32.3842 14.6846 32.3191C14.2471 32.1984 12.8653 31.7454 12.8653 31.3945V26.6989C14.9087 27.8845 20.1164 28.0828 22.4824 28.0828C24.8555 28.0828 30.0894 27.8819 32.136 26.695V31.3947C32.0941 32.3828 25.1395 33.6806 18.0752 32.917C17.8344 32.8924 17.6164 33.0681 17.5901 33.3072C17.5639 33.5588 17.7483 33.7678 17.9803 33.7925C23.7575 34.4094 33.0254 33.7773 33.0131 31.3947C33.0133 29.5161 33.0133 15.4268 33.0133 13.6055ZM12.9496 13.4666C14.8983 11.3056 30.1583 11.3973 32.05 13.4666C32.1608 13.5877 32.1636 13.622 32.05 13.7463C30.1099 15.8964 14.8363 15.8135 12.9496 13.7443C12.8391 13.6292 12.8392 13.5821 12.9496 13.4666ZM32.1355 25.4857C32.1355 26.1879 28.6979 27.2037 22.4824 27.2037C16.4932 27.2037 12.9001 26.2429 12.8653 25.4932V20.7956C14.8922 21.9704 20.0394 22.1724 22.4664 22.1746C24.1661 22.1746 25.8414 22.0938 27.3145 21.9373C27.565 21.9106 27.7307 21.686 27.7065 21.4557C27.6801 21.2149 27.4604 21.0391 27.2231 21.0639C25.7799 21.2149 24.1362 21.2957 22.4664 21.2957C16.4211 21.2957 12.934 20.3189 12.8653 19.5931V14.7667C16.2735 16.7056 28.6873 16.7282 32.136 14.7641V19.5769C32.1379 19.6226 32.1131 19.7475 31.8321 19.9426C31.5701 20.1234 31.1324 20.308 30.6033 20.4629C30.3715 20.5314 30.2377 20.7756 30.3064 21.0094C30.3748 21.2412 30.6253 21.3754 30.853 21.3065C30.853 21.3065 30.853 21.3065 30.853 21.3047C31.3922 21.1453 31.8062 20.9784 32.1362 20.7874C32.136 20.9378 32.1355 25.6323 32.1355 25.4857Z" fill="black"></path><path d="M4.85371 10.7228C4.65508 10.5961 4.37207 10.6596 4.24727 10.8564C2.02188 14.3299 0.847656 18.357 0.847656 22.5019C0.847656 34.4412 10.5204 44.1529 22.4986 44.1529C34.4532 44.1529 44.1496 34.4682 44.1496 22.5019C44.1496 20.6668 43.9192 18.8457 43.4676 17.0861C43.4076 16.8557 43.1651 16.7098 42.9313 16.7695C42.6975 16.8295 42.5551 17.0701 42.6149 17.3039C43.0508 18.9949 43.2705 20.7424 43.2705 22.5018C43.2705 33.9831 33.9786 43.2738 22.4985 43.2738C11.0166 43.2738 1.72639 33.9785 1.72639 22.5018C1.72639 18.5256 2.85314 14.6619 4.98713 11.3291C5.11932 11.124 5.05516 10.8522 4.85371 10.7228Z" fill="black"></path><path d="M22.4975 39.6986C31.9821 39.6986 39.6942 32.015 39.6942 22.5019C39.6942 12.9403 31.9058 5.30701 22.5818 5.30701H22.5748C18.6022 5.30701 14.8844 6.59039 11.824 9.01775C11.6229 9.17595 11.5964 9.48269 11.7871 9.67324L12.3689 10.2568L7.73184 10.5328L8.00957 5.89376L8.62129 6.50724C8.77774 6.66193 9.04492 6.67423 9.21367 6.53361C13.1833 3.2233 17.8793 1.70296 22.4992 1.72617C30.3691 1.76572 38.0186 6.284 41.4836 14.0609C41.5785 14.2754 41.8473 14.3791 42.0637 14.2842C42.2852 14.184 42.3854 13.9238 42.2869 13.7023C38.9641 6.25025 31.5878 0.949565 22.4975 0.848842C17.8124 0.796987 12.8989 2.44687 8.96231 5.60408L7.94102 4.58261C7.67488 4.31648 7.21135 4.49156 7.19219 4.86738L6.82481 10.9758C6.80705 11.23 7.01623 11.4553 7.28887 11.44L13.3973 11.0744C13.7734 11.0512 13.9503 10.5973 13.682 10.3256L12.7609 9.40447C15.5857 7.29861 18.9818 6.18574 22.5818 6.18416C31.3423 6.18416 38.8153 13.491 38.8153 22.5019C38.8153 31.5174 31.5187 38.8197 22.4975 38.8197C13.4797 38.8197 6.17969 31.5193 6.17969 22.5019C6.17969 19.4187 7.04453 16.4146 8.68281 13.8148C8.81113 13.6092 8.74961 13.3385 8.54395 13.2084C8.34531 13.0836 8.06406 13.1486 7.93926 13.3472C6.21309 16.0859 5.30078 19.2517 5.30078 22.5019C5.30078 32.0098 13.0106 39.6986 22.4975 39.6986Z" fill="black"></path><path d="M42.1184 15.6589C42.1935 15.873 42.4295 16.0126 42.6791 15.9296C42.9077 15.8488 43.0289 15.5972 42.9479 15.3689C42.8707 15.1457 42.6141 15.021 42.3889 15.1C42.1655 15.1743 42.0368 15.4255 42.1184 15.6589Z" fill="black"></path></g><defs><clipPath id="clip0_510_9"><rect width="45" height="45" fill="white"></rect></clipPath></defs></svg>