<svg xmlns="http://www.w3.org/2000/svg" width="75" height="75" viewBox="0 0 75 75" fill="none"><g clip-path="url(#clip0_607_3)"><path d="M33.0782 68.1425L30.6146 70.6052H5.49707V72.8024H31.07C31.3757 72.8024 31.6606 72.6757 31.864 72.4629L34.931 69.3971C35.1466 69.1933 35.2754 68.9062 35.2754 68.5983V54.0479H33.0782V68.1425Z" fill="#56788B"></path><path d="M24.9316 52.5566H27.1288V60.0539H24.9316V52.5566Z" fill="#56788B"></path><path d="M24.9317 62.2499C24.9317 61.6431 24.4399 61.1514 23.8332 61.1514H1.10249C0.495778 61.1514 0.00390625 61.6431 0.00390625 62.2499C0.00390625 62.8568 0.495778 63.3485 1.10249 63.3485H23.8332C24.44 63.3485 24.9317 62.8567 24.9317 62.2499Z" fill="#56788B"></path><path d="M47.875 52.5576H50.0722V60.0543H47.875V52.5576Z" fill="#56788B"></path><path d="M73.9015 61.1514H51.1708C50.564 61.1514 50.0723 61.6431 50.0723 62.2499C50.0723 62.8568 50.564 63.3485 51.1708 63.3485H73.9015C74.5084 63.3485 75.0001 62.8568 75.0001 62.2499C75.0001 61.6431 74.5082 61.1514 73.9015 61.1514Z" fill="#56788B"></path><path d="M41.9257 68.1426V54.0479H39.7285V68.5983C39.7285 68.9042 39.8554 69.1892 40.0683 69.3927L43.1353 72.4585C43.339 72.6741 43.626 72.8025 43.9337 72.8025H69.5067V70.6054H44.3893L41.9257 68.1426Z" fill="#56788B"></path><path d="M5.49681 68.4102H1.10249C0.495778 68.4102 0.00390625 68.9019 0.00390625 69.5087V73.9006C0.00390625 74.5074 0.495778 74.9992 1.10249 74.9992H5.49681C6.10353 74.9992 6.5954 74.5074 6.5954 73.9006V69.5087C6.5954 68.9019 6.10353 68.4102 5.49681 68.4102Z" fill="#FF4656"></path><path d="M73.9011 68.4102H69.5068C68.8999 68.4102 68.4082 68.9019 68.4082 69.5087V73.9004C68.4082 74.5073 68.8999 74.999 69.5068 74.999H73.9011C74.508 74.999 74.9997 74.5073 74.9997 73.9004V69.5087C74.9997 68.9019 74.5078 68.4102 73.9011 68.4102Z" fill="#FF4656"></path><path d="M51.1706 58.9551H46.7763C46.1695 58.9551 45.6777 59.4468 45.6777 60.0537V64.4454C45.6777 65.0522 46.1695 65.5439 46.7763 65.5439H51.1706C51.7775 65.5439 52.2692 65.0522 52.2692 64.4454V60.0537C52.2692 59.4468 51.7775 58.9551 51.1706 58.9551Z" fill="#00CEC8"></path><path d="M28.2273 58.9551H23.833C23.2261 58.9551 22.7344 59.4468 22.7344 60.0537V64.4454C22.7344 65.0522 23.2261 65.5439 23.833 65.5439H28.2273C28.8341 65.5439 29.3259 65.0522 29.3259 64.4454V60.0537C29.3259 59.4468 28.8341 58.9551 28.2273 58.9551Z" fill="#00CEC8"></path><path d="M74.9957 35.9816C74.9826 40.7304 73.1238 45.1877 69.7621 48.5362C67.7612 50.5282 65.3722 51.9857 62.7649 52.8353C62.7429 52.8426 62.7224 52.8485 62.7004 52.8558C60.9588 53.4183 59.1234 53.7083 57.2427 53.7083H14.7393C13.8854 53.7083 13.046 53.635 12.2302 53.4944C5.8247 52.4017 0.788802 47.1827 0.0827806 40.5048C-0.736028 32.762 4.60893 25.7633 12.1511 24.4216C12.1437 24.2048 12.1393 23.988 12.1393 23.7727C12.1642 18.3091 14.0802 12.9773 17.5341 8.75434C20.2322 5.45567 23.7784 2.94504 27.7465 1.48027H27.748C28.8597 1.07013 30.0037 0.740556 31.1712 0.500333C37.4067 -0.784274 43.7697 0.438813 49.0868 3.94402C54.174 7.29982 57.7202 12.3591 59.141 18.2593C68.1216 19.2216 75.0206 26.8502 74.9957 35.9816Z" fill="#99E7FA"></path><path d="M74.9958 35.9806C74.9827 40.7292 73.1239 45.1879 69.7622 48.5362C67.7452 50.5444 65.3327 52.009 62.7005 52.8557C63.8123 52.1482 64.8537 51.3074 65.8073 50.3437C69.169 46.9456 71.0278 42.4196 71.041 37.6006C71.0659 28.3318 64.1668 20.5878 55.1862 19.611C53.7654 13.6218 50.2192 8.48646 45.132 5.081C39.9657 1.62282 33.8122 0.351391 27.748 1.47927C28.8598 1.06913 30.0038 0.739557 31.1712 0.499334C37.4068 -0.785274 43.7698 0.437813 49.0869 3.94434C54.1741 7.29999 57.7203 12.3592 59.1411 18.259C68.1217 19.2214 75.0207 26.8496 74.9958 35.9806Z" fill="#4DD4F7"></path><path d="M57.1241 25.5518V53.7077H17.8799V25.5518C17.8799 23.2843 19.1381 20.1688 25.1334 18.2045C28.4761 17.1103 32.8689 16.5068 37.502 16.5068C42.1351 16.5068 46.5265 17.1103 49.8706 18.2045C55.8659 20.1688 57.1241 23.2843 57.1241 25.5518Z" fill="#4DD4F7"></path><path d="M54.1908 42.0498V52.085C54.1908 56.0999 45.7932 58.2004 37.4982 58.2004C37.009 58.2004 36.5212 58.1931 36.0335 58.1784C28.2423 57.947 20.8057 55.8641 20.8057 52.085V42.0498H54.1908Z" fill="#DAE1EA"></path><path d="M54.1906 42.0498V52.085C54.1906 56.0999 45.793 58.2004 37.498 58.2004C37.0087 58.2004 36.521 58.1931 36.0332 58.1784C43.8229 57.947 51.261 55.8641 51.261 52.085V42.0498H54.1906Z" fill="#B9CFDF"></path><path d="M37.4973 48.1663C46.7163 48.1663 54.1898 45.4282 54.1898 42.0504C54.1898 38.6727 46.7163 35.9346 37.4973 35.9346C28.2782 35.9346 20.8047 38.6727 20.8047 42.0504C20.8047 45.4282 28.2782 48.1663 37.4973 48.1663Z" fill="#EEF0F5"></path><path d="M37.4943 54.2132C38.1011 54.2132 38.5931 53.7212 38.5931 53.1144C38.5931 52.5076 38.1011 52.0156 37.4943 52.0156C36.8874 52.0156 36.3955 52.5076 36.3955 53.1144C36.3955 53.7212 36.8874 54.2132 37.4943 54.2132Z" fill="#90ABBD"></path><path d="M31.8371 53.8753C32.4439 53.8753 32.9358 53.3833 32.9358 52.7765C32.9358 52.1697 32.4439 51.6777 31.8371 51.6777C31.2302 51.6777 30.7383 52.1697 30.7383 52.7765C30.7383 53.3833 31.2302 53.8753 31.8371 53.8753Z" fill="#FF4656"></path><path d="M43.091 53.8753C43.6978 53.8753 44.1897 53.3833 44.1897 52.7765C44.1897 52.1697 43.6978 51.6777 43.091 51.6777C42.4841 51.6777 41.9922 52.1697 41.9922 52.7765C41.9922 53.3833 42.4841 53.8753 43.091 53.8753Z" fill="#00CEC8"></path><path d="M54.1937 25.5518V35.5869C54.1937 39.6019 45.7962 41.7024 37.5012 41.7024C37.0119 41.7024 36.5242 41.695 36.0364 41.6804C28.2453 41.449 20.8086 39.366 20.8086 35.5869V25.5518H54.1937Z" fill="#DAE1EA"></path><path d="M54.1945 25.5518V35.5869C54.1945 39.6019 45.7969 41.7024 37.5019 41.7024C37.0126 41.7024 36.5249 41.695 36.0371 41.6804C43.8268 41.449 51.2649 39.366 51.2649 35.5869V25.5518H54.1945Z" fill="#B9CFDF"></path><path d="M37.5021 31.6683C46.7212 31.6683 54.1947 28.9301 54.1947 25.5524C54.1947 22.1747 46.7212 19.4365 37.5021 19.4365C28.2831 19.4365 20.8096 22.1747 20.8096 25.5524C20.8096 28.9301 28.2831 31.6683 37.5021 31.6683Z" fill="#EEF0F5"></path><path d="M37.4972 37.7151C38.1041 37.7151 38.596 37.2232 38.596 36.6164C38.596 36.0095 38.1041 35.5176 37.4972 35.5176C36.8904 35.5176 36.3984 36.0095 36.3984 36.6164C36.3984 37.2232 36.8904 37.7151 37.4972 37.7151Z" fill="#90ABBD"></path><path d="M31.841 37.3772C32.4478 37.3772 32.9397 36.8853 32.9397 36.2785C32.9397 35.6716 32.4478 35.1797 31.841 35.1797C31.2341 35.1797 30.7422 35.6716 30.7422 36.2785C30.7422 36.8853 31.2341 37.3772 31.841 37.3772Z" fill="#FF4656"></path><path d="M43.0949 37.3772C43.7017 37.3772 44.1937 36.8853 44.1937 36.2785C44.1937 35.6716 43.7017 35.1797 43.0949 35.1797C42.488 35.1797 41.9961 35.6716 41.9961 36.2785C41.9961 36.8853 42.488 37.3772 43.0949 37.3772Z" fill="#00CEC8"></path></g><defs><clipPath id="clip0_607_3"><rect width="75" height="75" fill="white"></rect></clipPath></defs></svg>