<svg xmlns="http://www.w3.org/2000/svg" width="78" height="78" viewBox="0 0 78 78" fill="none"><g clip-path="url(#clip0_607_4)"><path d="M39.0001 2.28711L48.1727 26.3739L39.0001 48.1383C26.3352 48.1383 16.0693 37.8748 16.0693 25.2127C16.0693 12.5507 26.3352 2.28711 39.0001 2.28711Z" fill="#E6F7FF"></path><path d="M61.9308 25.2127C61.9308 37.8746 51.6648 48.1383 39 48.1383V2.28711C51.665 2.28711 61.9308 12.5508 61.9308 25.2127Z" fill="#B3E5FF"></path><path d="M17.9579 11.3115C15.2258 15.437 13.7812 20.2434 13.7812 25.2129C13.7812 30.1823 15.2258 34.9888 17.9579 39.1127C22.6466 46.1967 30.5124 50.4258 38.9999 50.4258L40.8855 25.4707L38.9999 0C30.5124 0 22.6466 4.22906 17.9579 11.3115ZM21.7689 36.5899C19.9556 33.8523 18.8357 30.746 18.4776 27.498H25.036C25.1852 30.6531 25.647 33.6771 26.415 36.5107C27.1098 39.0792 28.0409 41.3948 29.1562 43.3631C26.2245 41.7727 23.6767 39.4707 21.7689 36.5899ZM26.415 13.9136C25.647 16.7487 25.1852 19.7727 25.036 22.9277H18.4776C18.8356 19.6798 19.9556 16.5735 21.7705 13.8359C23.6767 10.955 26.2245 8.65312 29.1562 7.06266C28.0408 9.03094 27.1098 11.3466 26.415 13.9136ZM36.7143 45.1516C34.3326 43.7013 32.1231 40.1075 30.8279 35.3179C30.1742 32.9047 29.7627 30.2372 29.6149 27.498H36.7143V45.1516ZM36.7143 22.9277H29.6149C29.7627 20.1886 30.1742 17.5211 30.8279 15.1079C32.1231 10.3182 34.3326 6.72445 36.7143 5.27414V22.9277Z" fill="#33DDFF"></path><path d="M11.1149 59.0614C11.4165 58.683 11.5865 58.2082 11.6057 57.7255L11.8211 51.4776C11.8646 50.2162 10.8771 49.1585 9.61551 49.1151C9.58869 49.1142 9.56203 49.1137 9.53537 49.1137C8.30946 49.1137 7.29501 50.0857 7.2525 51.3201L7.2266 52.0725C5.49781 49.6964 4.56226 46.8464 4.56226 43.8516C4.56226 40.1079 6.02065 36.5882 8.66839 33.941C9.56112 33.0486 9.56112 31.6018 8.66839 30.7094C7.7758 29.8169 6.32854 29.8169 5.43596 30.7094C-1.34563 37.4893 -1.78179 48.247 4.12641 55.5394L2.99343 55.5784C1.73187 55.622 0.744376 56.6797 0.787794 57.941C0.830298 59.1756 1.84476 60.1474 3.07067 60.1474C3.09733 60.1474 3.12414 60.1469 3.1508 60.146L9.40009 59.9306C10.0629 59.9076 10.7061 59.5851 11.1149 59.0614Z" fill="#FF8080"></path><path d="M73.8738 45.312L75.0068 45.273C76.2684 45.2294 77.2559 44.1717 77.2125 42.9104C77.1689 41.649 76.1089 40.6634 74.8495 40.7054L68.6002 40.9208C67.4312 40.9438 66.4166 41.9571 66.3945 43.1258L66.1791 49.3738C66.1357 50.6352 67.1232 51.6929 68.3847 51.7363C68.4116 51.7372 68.4382 51.7377 68.4649 51.7377C69.6908 51.7377 70.7052 50.7657 70.7478 49.5313L70.7736 48.7789C72.5024 51.155 73.438 54.005 73.438 56.9998C73.438 60.7435 71.9796 64.2632 69.3319 66.9103C68.4391 67.8028 68.4391 69.2496 69.3319 70.142C69.7781 70.5882 70.3631 70.8114 70.9481 70.8114C71.5331 70.8114 72.1181 70.5884 72.5643 70.142C79.3459 63.362 79.782 52.6042 73.8738 45.312Z" fill="#FF4D88"></path><path d="M60.042 11.313C55.3533 4.22906 47.4875 0 39 0V50.4258C47.4875 50.4258 55.3533 46.1967 60.042 39.1143C62.7742 34.9888 64.2187 30.1823 64.2187 25.2129C64.2187 20.2434 62.7742 15.437 60.042 11.313ZM47.172 35.3179C45.8753 40.1075 43.6674 43.7044 41.2856 45.1532V27.498H48.385C48.2372 30.2372 47.8257 32.9047 47.172 35.3179ZM41.2856 22.9277V5.27262C43.6674 6.72141 45.8753 10.3182 47.172 15.1079C47.8257 17.5211 48.2372 20.1886 48.385 22.9277H41.2856ZM56.2295 36.5899C54.3232 39.4707 51.7754 41.7727 48.8437 43.3631C49.9591 41.3948 50.8901 39.0792 51.585 36.5122C52.3529 33.6771 52.8147 30.6531 52.964 27.498H59.5224C59.1644 30.746 58.0443 33.8523 56.2295 36.5899ZM52.964 22.9277C52.8147 19.7727 52.3529 16.7487 51.585 13.9151C50.8901 11.3466 49.959 9.03094 48.8437 7.06266C51.7755 8.65312 54.3232 10.955 56.231 13.8359C58.0443 16.5735 59.1642 19.6798 59.5224 22.9277H52.964Z" fill="#33BBFF"></path><path d="M38.9995 55.1484L47.2011 67.2066L38.9995 78H21.9117C18.6889 78 16.0664 75.3782 16.0664 72.1561V60.9923C16.0664 57.7703 18.6889 55.1484 21.9117 55.1484H38.9995Z" fill="#4D6D8C"></path><path d="M61.9321 60.9923V72.1561C61.9321 75.3782 59.3096 78 56.0868 78H38.999V55.1484H56.0868C59.3096 55.1484 61.9321 57.7703 61.9321 60.9923Z" fill="#284866"></path><path d="M38.9999 64.2891L40.8855 67.0131L38.9999 68.8594H36.7143C35.4526 68.8594 34.4287 67.8356 34.4287 66.5742C34.4287 65.3128 35.4528 64.2891 36.7143 64.2891H38.9999Z" fill="#E6F7FF"></path><path d="M25.9712 68.8594C27.2335 68.8594 28.2568 67.8363 28.2568 66.5742C28.2568 65.3122 27.2335 64.2891 25.9712 64.2891C24.7088 64.2891 23.6855 65.3122 23.6855 66.5742C23.6855 67.8363 24.7088 68.8594 25.9712 68.8594Z" fill="#80FFAA"></path><path d="M54.3131 66.5742C54.3131 67.8356 53.289 68.8594 52.0275 68.8594H38.999V64.2891H52.0275C53.2892 64.2891 54.3131 65.3128 54.3131 66.5742Z" fill="#B3E5FF"></path></g><defs><clipPath id="clip0_607_4"><rect width="78" height="78" fill="white"></rect></clipPath></defs></svg>