<svg xmlns="http://www.w3.org/2000/svg" width="75" height="75" viewBox="0 0 75 75" fill="none"><path d="M36.1299 46.335H38.8716V66.6853H36.1299V46.335Z" fill="#D1DDEB"></path><path d="M73.6141 33.5689C73.6141 37.9612 67.2461 41.5161 59.3878 41.5161C51.5296 41.5161 45.1582 37.9612 45.1582 33.5689V26.6152H73.5721L73.6141 33.5689Z" fill="#8DBD57"></path><path d="M73.6141 26.7128C73.6141 31.1016 67.2461 34.6599 59.3878 34.6599C51.5296 34.6599 45.1582 31.1016 45.1582 26.7128C45.1582 22.3239 51.5296 18.7656 59.3878 18.7656C67.2461 18.7656 73.6141 22.3239 73.6141 26.7128Z" fill="#A9D075"></path><path d="M59.3876 30.8998C52.9952 30.8998 48.918 28.1503 48.918 26.7126C48.918 25.2749 52.9952 22.5254 59.3876 22.5254C65.7781 22.5254 69.854 25.2749 69.854 26.7126C69.854 28.1503 65.7781 30.8998 59.3876 30.8998Z" fill="#FFD67E"></path><path d="M73.6141 24.8824C73.6141 29.2747 67.2461 32.8295 59.3878 32.8295C51.5296 32.8295 45.1582 29.2747 45.1582 24.8824V17.9287H73.5721L73.6141 24.8824Z" fill="#8DBD57"></path><path d="M73.6141 18.0262C73.6141 22.4151 67.2461 25.9734 59.3878 25.9734C51.5296 25.9734 45.1582 22.4151 45.1582 18.0262C45.1582 13.6374 51.5296 10.0791 59.3878 10.0791C67.2461 10.0791 73.6141 13.6374 73.6141 18.0262Z" fill="#A9D075"></path><path d="M59.3876 22.2133C52.9952 22.2133 48.918 19.4637 48.918 18.0261C48.918 16.5884 52.9952 13.8389 59.3876 13.8389C65.7781 13.8389 69.854 16.5884 69.854 18.0261C69.854 19.4637 65.7781 22.2133 59.3876 22.2133Z" fill="#FFD67E"></path><path d="M73.6141 16.1949C73.6141 20.5872 67.2461 24.142 59.3878 24.142C51.5296 24.142 45.1582 20.5872 45.1582 16.1949V9.24121H73.5721L73.6141 16.1949Z" fill="#8DBD57"></path><path d="M73.6141 9.33873C73.6141 13.7276 67.2461 17.2859 59.3878 17.2859C51.5296 17.2859 45.1582 13.7276 45.1582 9.33873C45.1582 4.94988 51.5296 1.3916 59.3878 1.3916C67.2461 1.3916 73.6141 4.94988 73.6141 9.33873Z" fill="#A9D075"></path><path d="M59.3876 13.5258C52.9952 13.5258 48.918 10.7762 48.918 9.33856C48.918 7.90088 52.9952 5.15137 59.3876 5.15137C65.7781 5.15137 69.854 7.90088 69.854 9.33856C69.854 10.7762 65.7781 13.5258 59.3876 13.5258Z" fill="#BDDE99"></path><path d="M49.4402 18.2412C49.117 18.6636 48.4526 18.6972 47.9588 18.3197C47.4629 17.9379 47.3307 17.2858 47.6539 16.8635C47.9815 16.4391 48.6459 16.4055 49.1385 16.7862C49.6312 17.1668 49.7677 17.8168 49.4402 18.2412Z" fill="#E4686A"></path><path d="M69.45 18.3858C69.7731 18.8081 70.4375 18.8417 70.9313 18.4643C71.4272 18.0825 71.5594 17.4304 71.2362 17.008C70.9086 16.5836 70.2443 16.55 69.7516 16.9307C69.2589 17.3114 69.1224 17.9613 69.45 18.3858Z" fill="#606076"></path><path d="M66.4558 20.2159C66.779 20.6382 67.4434 20.6718 67.9372 20.2943C68.4331 19.9125 68.5653 19.2605 68.242 18.8381C67.9145 18.4137 67.2501 18.3801 66.7575 18.7608C66.2647 19.1415 66.1283 19.7914 66.4558 20.2159Z" fill="#606076"></path><path d="M62.8025 20.8897C63.1257 21.3121 63.79 21.3456 64.2839 20.9682C64.7798 20.5864 64.912 19.9343 64.5887 19.5119C64.2612 19.0875 63.5968 19.0539 63.1041 19.4346C62.6114 19.8153 62.4749 20.4653 62.8025 20.8897Z" fill="#606076"></path><path d="M69.45 27.2862C69.7731 27.7085 70.4375 27.7421 70.9313 27.3647C71.4272 26.9828 71.5594 26.3308 71.2362 25.9084C70.9086 25.484 70.2443 25.4504 69.7516 25.8311C69.2589 26.2118 69.1224 26.8617 69.45 27.2862Z" fill="#606076"></path><path d="M66.4558 29.1162C66.779 29.5386 67.4434 29.5722 67.9372 29.1947C68.4331 28.8129 68.5653 28.1608 68.242 27.7385C67.9145 27.3141 67.2501 27.2805 66.7575 27.6612C66.2647 28.0418 66.1283 28.6918 66.4558 29.1162Z" fill="#606076"></path><path d="M62.8025 29.7901C63.1257 30.2124 63.79 30.246 64.2839 29.8686C64.7798 29.4868 64.912 28.8347 64.5887 28.4123C64.2612 27.9879 63.5968 27.9543 63.1041 28.335C62.6114 28.7157 62.4749 29.3656 62.8025 29.7901Z" fill="#606076"></path><path d="M69.45 36.1866C69.7731 36.6089 70.4375 36.6425 70.9313 36.265C71.4272 35.8832 71.5594 35.2312 71.2362 34.8088C70.9086 34.3844 70.2443 34.3508 69.7516 34.7315C69.2589 35.1122 69.1224 35.7621 69.45 36.1866Z" fill="#606076"></path><path d="M66.4558 38.0166C66.779 38.439 67.4434 38.4726 67.9372 38.0951C68.4331 37.7133 68.5653 37.0612 68.242 36.6389C67.9145 36.2145 67.2501 36.1809 66.7575 36.5616C66.2647 36.9422 66.1283 37.5922 66.4558 38.0166Z" fill="#606076"></path><path d="M62.8025 38.6905C63.1257 39.1128 63.79 39.1464 64.2839 38.7689C64.7798 38.3871 64.912 37.7351 64.5887 37.3127C64.2612 36.8883 63.5968 36.8547 63.1041 37.2354C62.6114 37.6161 62.4749 38.266 62.8025 38.6905Z" fill="#606076"></path><path d="M49.4402 27.3047C49.117 27.7271 48.4526 27.7607 47.9588 27.3832C47.4629 27.0014 47.3307 26.3493 47.6539 25.927C47.9815 25.5025 48.6459 25.469 49.1385 25.8496C49.6312 26.2303 49.7677 26.8803 49.4402 27.3047Z" fill="#E4686A"></path><path d="M49.4402 35.9395C49.117 36.3619 48.4526 36.3954 47.9588 36.018C47.4629 35.6362 47.3307 34.9841 47.6539 34.5617C47.9815 34.1373 48.6459 34.1037 49.1385 34.4844C49.6312 34.8651 49.7677 35.5151 49.4402 35.9395Z" fill="#E4686A"></path><path d="M29.8426 33.5689C29.8426 37.9612 23.4746 41.5161 15.6164 41.5161C7.7581 41.5161 1.38672 37.9612 1.38672 33.5689V26.6152H29.8007L29.8426 33.5689Z" fill="#53AFF4"></path><path d="M29.8426 26.7128C29.8426 31.1016 23.4746 34.6599 15.6164 34.6599C7.7581 34.6599 1.38672 31.1016 1.38672 26.7128C1.38672 22.3239 7.7581 18.7656 15.6164 18.7656C23.4746 18.7656 29.8426 22.3239 29.8426 26.7128Z" fill="#6DBCF7"></path><path d="M15.6161 30.8998C9.22369 30.8998 5.14648 28.1503 5.14648 26.7126C5.14648 25.2749 9.22369 22.5254 15.6161 22.5254C22.0066 22.5254 26.0825 25.2749 26.0825 26.7126C26.0825 28.1503 22.0066 30.8998 15.6161 30.8998Z" fill="#FFD67E"></path><path d="M29.8426 24.8824C29.8426 29.2747 23.4746 32.8295 15.6164 32.8295C7.7581 32.8295 1.38672 29.2747 1.38672 24.8824V17.9287H29.8007L29.8426 24.8824Z" fill="#53AFF4"></path><path d="M29.8426 18.0262C29.8426 22.4151 23.4746 25.9734 15.6164 25.9734C7.7581 25.9734 1.38672 22.4151 1.38672 18.0262C1.38672 13.6374 7.7581 10.0791 15.6164 10.0791C23.4746 10.0791 29.8426 13.6374 29.8426 18.0262Z" fill="#6DBCF7"></path><path d="M15.6161 22.2133C9.22369 22.2133 5.14648 19.4637 5.14648 18.0261C5.14648 16.5884 9.22369 13.8389 15.6161 13.8389C22.0066 13.8389 26.0825 16.5884 26.0825 18.0261C26.0825 19.4637 22.0066 22.2133 15.6161 22.2133Z" fill="#FFD67E"></path><path d="M29.8426 16.1949C29.8426 20.5872 23.4746 24.142 15.6164 24.142C7.7581 24.142 1.38672 20.5872 1.38672 16.1949V9.24121H29.8007L29.8426 16.1949Z" fill="#53AFF4"></path><path d="M29.8426 9.33873C29.8426 13.7276 23.4746 17.2859 15.6164 17.2859C7.7581 17.2859 1.38672 13.7276 1.38672 9.33873C1.38672 4.94988 7.7581 1.3916 15.6164 1.3916C23.4746 1.3916 29.8426 4.94988 29.8426 9.33873Z" fill="#6DBCF7"></path><path d="M15.6161 13.5258C9.22369 13.5258 5.14648 10.7762 5.14648 9.33856C5.14648 7.90088 9.22369 5.15137 15.6161 5.15137C22.0066 5.15137 26.0825 7.90088 26.0825 9.33856C26.0825 10.7762 22.0066 13.5258 15.6161 13.5258Z" fill="#86CFF8"></path><path d="M5.66868 18.2412C5.34548 18.6636 4.68113 18.6972 4.18728 18.3197C3.69139 17.9379 3.55922 17.2858 3.88246 16.8635C4.21002 16.4391 4.87437 16.4055 5.36704 16.7862C5.85975 17.1668 5.99624 17.8168 5.66868 18.2412Z" fill="#E4686A"></path><path d="M25.6785 18.3858C26.0017 18.8081 26.666 18.8417 27.1599 18.4643C27.6558 18.0825 27.7879 17.4304 27.4647 17.008C27.1371 16.5836 26.4728 16.55 25.9801 16.9307C25.4874 17.3114 25.3509 17.9613 25.6785 18.3858Z" fill="#606076"></path><path d="M22.6843 20.2159C23.0075 20.6382 23.6719 20.6718 24.1657 20.2943C24.6616 19.9125 24.7938 19.2605 24.4705 18.8381C24.143 18.4137 23.4786 18.3801 22.986 18.7608C22.4933 19.1415 22.3568 19.7914 22.6843 20.2159Z" fill="#606076"></path><path d="M19.031 20.8897C19.3542 21.3121 20.0186 21.3456 20.5124 20.9682C21.0083 20.5864 21.1405 19.9343 20.8172 19.5119C20.4897 19.0875 19.8253 19.0539 19.3326 19.4346C18.8399 19.8153 18.7034 20.4653 19.031 20.8897Z" fill="#606076"></path><path d="M25.6785 27.2862C26.0017 27.7085 26.666 27.7421 27.1599 27.3647C27.6558 26.9828 27.7879 26.3308 27.4647 25.9084C27.1371 25.484 26.4728 25.4504 25.9801 25.8311C25.4874 26.2118 25.3509 26.8617 25.6785 27.2862Z" fill="#606076"></path><path d="M22.6843 29.1162C23.0075 29.5386 23.6719 29.5722 24.1657 29.1947C24.6616 28.8129 24.7938 28.1608 24.4705 27.7385C24.143 27.3141 23.4786 27.2805 22.986 27.6612C22.4933 28.0418 22.3568 28.6918 22.6843 29.1162Z" fill="#606076"></path><path d="M19.031 29.7901C19.3542 30.2124 20.0186 30.246 20.5124 29.8686C21.0083 29.4868 21.1405 28.8347 20.8172 28.4123C20.4897 27.9879 19.8253 27.9543 19.3326 28.335C18.8399 28.7157 18.7034 29.3656 19.031 29.7901Z" fill="#606076"></path><path d="M25.6785 36.1866C26.0017 36.6089 26.666 36.6425 27.1599 36.265C27.6558 35.8832 27.7879 35.2312 27.4647 34.8088C27.1371 34.3844 26.4728 34.3508 25.9801 34.7315C25.4874 35.1122 25.3509 35.7621 25.6785 36.1866Z" fill="#606076"></path><path d="M22.6843 38.0166C23.0075 38.439 23.6719 38.4726 24.1657 38.0951C24.6616 37.7133 24.7938 37.0612 24.4705 36.6389C24.143 36.2145 23.4786 36.1809 22.986 36.5616C22.4933 36.9422 22.3568 37.5922 22.6843 38.0166Z" fill="#606076"></path><path d="M19.031 38.6905C19.3542 39.1128 20.0186 39.1464 20.5124 38.7689C21.0083 38.3871 21.1405 37.7351 20.8172 37.3127C20.4897 36.8883 19.8253 36.8547 19.3326 37.2354C18.8399 37.6161 18.7034 38.266 19.031 38.6905Z" fill="#606076"></path><path d="M5.66868 27.3047C5.34548 27.7271 4.68113 27.7607 4.18728 27.3832C3.69139 27.0014 3.55922 26.3493 3.88246 25.927C4.21002 25.5025 4.87437 25.469 5.36704 25.8496C5.85975 26.2303 5.99624 26.8803 5.66868 27.3047Z" fill="#E4686A"></path><path d="M5.66868 35.9395C5.34548 36.3619 4.68113 36.3954 4.18728 36.018C3.69139 35.6362 3.55922 34.9841 3.88246 34.5617C4.21002 34.1373 4.87437 34.1037 5.36704 34.4844C5.85975 34.8651 5.99624 35.5151 5.66868 35.9395Z" fill="#E4686A"></path><path d="M54.1953 53.9565C54.1953 59.1105 46.723 63.2818 37.502 63.2818C28.281 63.2818 20.8047 59.1105 20.8047 53.9565V45.7969H54.1461L54.1953 53.9565Z" fill="#FFB749"></path><path d="M54.1953 45.9112C54.1953 51.0612 46.723 55.2366 37.502 55.2366C28.281 55.2366 20.8047 51.0612 20.8047 45.9112C20.8047 40.7613 28.281 36.5859 37.502 36.5859C46.723 36.5859 54.1953 40.7613 54.1953 45.9112Z" fill="#FFC863"></path><path d="M37.5021 50.8247C30.0011 50.8247 25.2168 47.5984 25.2168 45.9114C25.2168 44.2244 30.0011 40.998 37.5021 40.998C45.0008 40.998 49.7835 44.2244 49.7835 45.9114C49.7835 47.5984 45.0008 50.8247 37.5021 50.8247Z" fill="#FFD67E"></path><path d="M54.1953 43.7621C54.1953 48.9161 46.723 53.0874 37.502 53.0874C28.281 53.0874 20.8047 48.9161 20.8047 43.7621V35.6025H54.1461L54.1953 43.7621Z" fill="#FFB749"></path><path d="M54.1953 35.7169C54.1953 40.8669 46.723 45.0422 37.502 45.0422C28.281 45.0422 20.8047 40.8669 20.8047 35.7169C20.8047 30.5669 28.281 26.3916 37.502 26.3916C46.723 26.3916 54.1953 30.5669 54.1953 35.7169Z" fill="#FFC863"></path><path d="M37.5021 40.6304C30.0011 40.6304 25.2168 37.404 25.2168 35.717C25.2168 34.03 30.0011 30.8037 37.5021 30.8037C45.0008 30.8037 49.7835 34.03 49.7835 35.717C49.7835 37.404 45.0008 40.6304 37.5021 40.6304Z" fill="#FFD67E"></path><path d="M54.1953 33.5688C54.1953 38.7228 46.723 42.8941 37.502 42.8941C28.281 42.8941 20.8047 38.7228 20.8047 33.5688V25.4092H54.1461L54.1953 33.5688Z" fill="#FFB749"></path><path d="M54.1953 25.5236C54.1953 30.6735 46.723 34.8489 37.502 34.8489C28.281 34.8489 20.8047 30.6735 20.8047 25.5236C20.8047 20.3736 28.281 16.1982 37.502 16.1982C46.723 16.1982 54.1953 20.3736 54.1953 25.5236Z" fill="#FFC863"></path><path d="M37.5021 30.437C30.0011 30.437 25.2168 27.2107 25.2168 25.5237C25.2168 23.8367 30.0011 20.6104 37.5021 20.6104C45.0008 20.6104 49.7835 23.8367 49.7835 25.5237C49.7835 27.2107 45.0008 30.437 37.5021 30.437Z" fill="#FFD67E"></path><path d="M25.8293 35.9701C25.4501 36.4658 24.6705 36.5052 24.091 36.0622C23.5092 35.6142 23.3541 34.8491 23.7334 34.3535C24.1177 33.8554 24.8973 33.816 25.4754 34.2627C26.0535 34.7094 26.2137 35.4721 25.8293 35.9701Z" fill="#E4686A"></path><path d="M49.308 36.1391C49.6873 36.6347 50.4669 36.6741 51.0463 36.2312C51.6282 35.7832 51.7833 35.018 51.404 34.5224C51.0197 34.0244 50.2401 33.985 49.662 34.4317C49.0839 34.8784 48.9237 35.6411 49.308 36.1391Z" fill="#606076"></path><path d="M45.7954 38.2866C46.1746 38.7822 46.9542 38.8216 47.5337 38.3786C48.1155 37.9306 48.2706 37.1655 47.8913 36.6699C47.507 36.1718 46.7274 36.1324 46.1493 36.5791C45.5712 37.0258 45.411 37.7885 45.7954 38.2866Z" fill="#606076"></path><path d="M41.5082 39.0766C41.8875 39.5722 42.6671 39.6116 43.2465 39.1687C43.8284 38.7207 43.9835 37.9555 43.6042 37.4599C43.2199 36.9619 42.4403 36.9225 41.8622 37.3692C41.284 37.8159 41.1239 38.5786 41.5082 39.0766Z" fill="#606076"></path><path d="M49.308 46.5825C49.6873 47.0781 50.4669 47.1175 51.0463 46.6745C51.6282 46.2265 51.7833 45.4614 51.404 44.9658C51.0197 44.4677 50.2401 44.4283 49.662 44.875C49.0839 45.3217 48.9237 46.0844 49.308 46.5825Z" fill="#606076"></path><path d="M45.7954 48.7299C46.1746 49.2255 46.9542 49.2649 47.5337 48.822C48.1155 48.374 48.2706 47.6088 47.8913 47.1132C47.507 46.6152 46.7274 46.5758 46.1493 47.0225C45.5712 47.4692 45.411 48.2319 45.7954 48.7299Z" fill="#606076"></path><path d="M41.5082 49.52C41.8875 50.0156 42.6671 50.055 43.2465 49.612C43.8284 49.164 43.9835 48.3989 43.6042 47.9033C43.2199 47.4052 42.4403 47.3658 41.8622 47.8125C41.284 48.2592 41.1239 49.0219 41.5082 49.52Z" fill="#606076"></path><path d="M49.308 57.0268C49.6873 57.5224 50.4669 57.5618 51.0463 57.1189C51.6282 56.6709 51.7833 55.9057 51.404 55.4101C51.0197 54.9121 50.2401 54.8727 49.662 55.3194C49.0839 55.7661 48.9237 56.5288 49.308 57.0268Z" fill="#606076"></path><path d="M45.7954 59.1743C46.1746 59.6699 46.9542 59.7093 47.5337 59.2663C48.1155 58.8183 48.2706 58.0532 47.8913 57.5576C47.507 57.0595 46.7274 57.0201 46.1493 57.4668C45.5712 57.9135 45.411 58.6762 45.7954 59.1743Z" fill="#606076"></path><path d="M41.5082 59.9643C41.8875 60.4599 42.6671 60.4993 43.2465 60.0564C43.8284 59.6084 43.9835 58.8432 43.6042 58.3476C43.2199 57.8496 42.4403 57.8102 41.8622 58.2569C41.284 58.7036 41.1239 59.4663 41.5082 59.9643Z" fill="#606076"></path><path d="M25.8293 46.6049C25.4501 47.1005 24.6705 47.1399 24.091 46.697C23.5092 46.249 23.3541 45.4838 23.7334 44.9882C24.1177 44.4902 24.8973 44.4508 25.4754 44.8975C26.0535 45.3442 26.2137 46.1069 25.8293 46.6049Z" fill="#E4686A"></path><path d="M25.8293 56.7368C25.4501 57.2324 24.6705 57.2718 24.091 56.8288C23.5092 56.3808 23.3541 55.6157 23.7334 55.1201C24.1177 54.622 24.8973 54.5826 25.4754 55.0293C26.0535 55.476 26.2137 56.2387 25.8293 56.7368Z" fill="#E4686A"></path><path d="M8.15137 68.1641H66.8504V71.1658H8.15137V68.1641Z" fill="#D1DDEB"></path><path d="M43.4688 68.3068V71.0149C43.4688 71.5622 43.0252 72.0116 42.4778 72.0116H32.5223C31.9749 72.0116 31.5312 71.5622 31.5312 71.0149V68.3068C31.5312 67.7652 31.9749 67.3158 32.5223 67.3158H35.155V65.5008C35.155 64.9534 35.5986 64.5098 36.146 64.5098H38.8541C39.4014 64.5098 39.8451 64.9534 39.8451 65.5008V67.3158H42.4778C43.0252 67.3158 43.4688 67.7652 43.4688 68.3068Z" fill="#606076"></path><path d="M70.866 69.6684C70.866 71.8419 69.1 73.6079 66.9203 73.6079C64.7406 73.6079 62.9746 71.8419 62.9746 69.6684C62.9746 67.4887 64.7406 65.7227 66.9203 65.7227C69.1 65.7227 70.866 67.4887 70.866 69.6684Z" fill="#E4686A"></path><path d="M12.0262 69.6684C12.0262 71.8419 10.2602 73.6079 8.08049 73.6079C5.90076 73.6079 4.13477 71.8419 4.13477 69.6684C4.13477 67.4887 5.90076 65.7227 8.08049 65.7227C10.2602 65.7227 12.0262 67.4887 12.0262 69.6684Z" fill="#E4686A"></path></svg>