<svg xmlns="http://www.w3.org/2000/svg" width="83" height="83" viewBox="0 0 83 83" fill="none"><g clip-path="url(#clip0_608_6)"><path d="M53.8848 82.8508L42.1964 77.656C41.7532 77.459 41.2474 77.459 40.8044 77.656L29.116 82.8508C27.9827 83.3544 26.7061 82.5249 26.7061 81.2846V43.6172H56.2949V81.2846C56.2948 82.5247 55.0181 83.3544 53.8848 82.8508Z" fill="#FCE25C"></path><path d="M45.9278 43.6162H37.0723V79.3137L40.804 77.6551C41.2472 77.4582 41.753 77.4582 42.1961 77.6551L45.9278 79.3137V43.6162Z" fill="#FBD307"></path><path d="M46.9284 3.07323C48.5535 5.78175 51.9267 6.87778 54.8335 5.64169C59.2312 3.77176 64.0356 7.26246 63.6162 12.0226C63.339 15.1692 65.4236 18.0385 68.5019 18.7471C73.1588 19.8191 74.994 25.4672 71.8566 29.0719C69.7829 31.4544 69.7829 35.0012 71.8566 37.3837C74.994 40.9882 73.1588 46.6364 68.5019 47.7084C65.4237 48.417 63.339 51.2864 63.6162 54.4329C64.0358 59.1933 59.2312 62.684 54.8335 60.8139C51.9267 59.5778 48.5535 60.6738 46.9284 63.3823C44.4697 67.48 38.531 67.48 36.0724 63.3823C34.4473 60.6738 31.0741 59.5778 28.1673 60.8139C23.7696 62.6838 18.9652 59.1931 19.3845 54.4329C19.6618 51.2864 17.5772 48.417 14.4989 47.7084C9.84199 46.6364 8.00675 40.9884 11.1442 37.3837C13.2179 35.0012 13.2179 31.4544 11.1442 29.0719C8.00675 25.4674 9.84199 19.8191 14.4989 18.7471C17.577 18.0385 19.6618 15.1692 19.3845 12.0226C18.965 7.2623 23.7696 3.7716 28.1673 5.64169C31.0741 6.87778 34.4473 5.78175 36.0724 3.07323C38.531 -1.02441 44.4697 -1.02441 46.9284 3.07323Z" fill="#FC5327"></path><path d="M41.4997 56.0327C54.0943 56.0327 64.3041 45.8228 64.3041 33.2282C64.3041 20.6337 54.0943 10.4238 41.4997 10.4238C28.9052 10.4238 18.6953 20.6337 18.6953 33.2282C18.6953 45.8228 28.9052 56.0327 41.4997 56.0327Z" fill="#E8F3FF"></path><path d="M41.5001 10.4238C40.4372 10.4238 39.3916 10.4982 38.3672 10.6389C49.4791 12.166 58.0387 21.6966 58.0387 33.2282C58.0387 44.7599 49.4791 54.2905 38.3672 55.8175C39.3916 55.9582 40.437 56.0327 41.5001 56.0327C54.0947 56.0327 64.3045 45.8228 64.3045 33.2282C64.3045 20.6336 54.0947 10.4238 41.5001 10.4238Z" fill="#C1E2FF"></path><path d="M71.8559 37.3835C69.7822 35.001 69.7822 31.4542 71.8559 29.0717C74.9934 25.4672 73.1582 19.8191 68.5013 18.7469C65.4231 18.0383 63.3384 15.169 63.6156 12.0225C64.0351 7.26213 59.2305 3.77142 54.8328 5.64136C54.2507 5.8889 53.6498 6.04144 53.0479 6.10758C61.5305 12.1301 67.0658 22.0322 67.0658 33.2275C67.0658 44.4228 61.5305 54.3249 53.0479 60.3474C53.6496 60.4137 54.2505 60.5661 54.8328 60.8137C59.2305 62.6836 64.035 59.1929 63.6156 54.4327C63.3382 51.2863 65.423 48.4168 68.5013 47.7083C73.1582 46.6362 74.9934 40.988 71.8559 37.3835Z" fill="#ED4322"></path><path d="M51.8763 40.3176C51.2922 40.2179 50.8652 39.7116 50.8652 39.1191V27.8105C50.8652 27.1389 51.4096 26.5947 52.0811 26.5947C52.7525 26.5947 53.2969 27.1389 53.2969 27.8105V37.9127C54.0562 37.9122 55.0828 37.9087 56.0375 37.9031H56.0445C56.7128 37.9031 57.2564 38.443 57.2601 39.1122C57.2639 39.7838 56.7226 40.3311 56.0511 40.3348C55.7016 40.3369 52.1589 40.3661 51.8763 40.3176Z" fill="#057195"></path><path d="M30.7282 40.3447C28.873 40.3447 27.0618 39.5682 25.8832 38.2676C25.4324 37.7701 25.4702 37.001 25.9677 36.5502C26.4652 36.0994 27.2343 36.1372 27.6851 36.6347C28.4105 37.4352 29.548 37.9131 30.7282 37.9131C32.7027 37.9131 34.1884 35.7684 31.2902 34.6999C30.7512 34.501 28.0933 33.464 27.7543 33.2424C25.2881 31.6347 25.8046 27.7822 28.9834 26.8245C31.9737 25.9236 34.4387 27.9566 34.5423 28.0437C35.0564 28.4757 35.1228 29.2427 34.6908 29.7567C34.2602 30.269 33.4972 30.3366 32.9831 29.9094C32.9446 29.8783 31.387 28.6403 29.6849 29.1528C28.507 29.5075 28.3724 30.6647 29.017 31.159C29.3884 31.3219 30.7099 31.8938 32.1319 32.4185C37.5128 34.4029 35.5185 40.3447 30.7282 40.3447Z" fill="#057195"></path><path d="M42.7995 40.3447C40.9443 40.3447 39.1331 39.5682 37.9545 38.2676C37.5037 37.7701 37.5415 37.001 38.039 36.5502C38.5367 36.0994 39.3055 36.1372 39.7564 36.6347C40.4818 37.4352 41.6193 37.9131 42.7995 37.9131C44.774 37.9131 46.2597 35.7684 43.3615 34.6999C42.8225 34.501 40.1646 33.464 39.8256 33.2424C37.3594 31.6347 37.8759 27.7822 41.0547 26.8245C44.0451 25.9236 46.51 27.9566 46.6136 28.0437C47.1276 28.4757 47.1941 29.2427 46.7621 29.7567C46.3315 30.269 45.5685 30.3366 45.0544 29.9094C45.0158 29.8783 43.4583 28.6403 41.7561 29.1528C40.5783 29.5075 40.4437 30.6647 41.0883 31.159C41.4596 31.3219 42.7812 31.8938 44.2032 32.4185C49.5839 34.4029 47.5898 40.3447 42.7995 40.3447Z" fill="#057195"></path></g><defs><clipPath id="clip0_608_6"><rect width="83" height="83" fill="white"></rect></clipPath></defs></svg>