<svg xmlns="http://www.w3.org/2000/svg" width="75" height="75" viewBox="0 0 75 75" fill="none"><path d="M66.7969 3.51562H45.7031C43.1143 3.51562 41.0156 5.61429 41.0156 8.20312V29.2969C41.0156 31.8857 43.1143 33.9844 45.7031 33.9844H66.7969C69.3857 33.9844 71.4844 31.8857 71.4844 29.2969V8.20312C71.4844 5.61429 69.3857 3.51562 66.7969 3.51562Z" fill="#FFDAAA"></path><path d="M46.875 7.03125V11.7188H49.2188V9.375H55.0781V28.125H52.7344V30.4688H59.7656V28.125H57.4219V9.375H63.2812V11.7188H65.625V7.03125H46.875Z" fill="#FF6536"></path><path d="M66.7969 48.0469H8.20312V71.4844H66.7969V48.0469Z" fill="#E6E6E6"></path><path d="M66.7969 41.0156H8.20312V48.0469H66.7969V41.0156Z" fill="#B3B3B3"></path><path d="M11.7188 45.7031C11.4085 45.6986 11.1114 45.5772 10.8867 45.3633C10.6709 45.1398 10.5492 44.8419 10.5469 44.5312C10.5455 44.2985 10.6135 44.0706 10.7422 43.8766C10.8709 43.6826 11.0544 43.5314 11.2694 43.4421C11.4844 43.3529 11.721 43.3296 11.9493 43.3754C12.1775 43.4212 12.3869 43.5339 12.5508 43.6992C12.7647 43.9239 12.8861 44.221 12.8906 44.5312C12.8883 44.8419 12.7667 45.1398 12.5508 45.3633C12.4922 45.4101 12.4336 45.457 12.3633 45.5039C12.3035 45.5504 12.2361 45.586 12.1641 45.6094C12.0977 45.6432 12.0266 45.6669 11.9531 45.6797C11.8757 45.6933 11.7974 45.7011 11.7188 45.7031Z" fill="#FF6536"></path><path d="M15.2344 45.703C15.0806 45.707 14.9281 45.6749 14.7891 45.6092C14.6471 45.5498 14.5163 45.4665 14.4023 45.3631C14.1865 45.1397 14.0648 44.8418 14.0625 44.5311C14.067 44.2209 14.1884 43.9237 14.4023 43.699C14.5163 43.5956 14.6471 43.5124 14.7891 43.453C15.0025 43.3632 15.2377 43.3387 15.465 43.3825C15.6923 43.4263 15.9016 43.5364 16.0664 43.699C16.2803 43.9237 16.4017 44.2209 16.4062 44.5311C16.4039 44.8418 16.2823 45.1397 16.0664 45.3631C15.8417 45.5771 15.5446 45.6984 15.2344 45.703Z" fill="#FDB62F"></path><path d="M18.75 45.7031C18.4398 45.6986 18.1427 45.5772 17.918 45.3633C17.7021 45.1398 17.5804 44.8419 17.5781 44.5312C17.5781 44.2204 17.7016 43.9224 17.9214 43.7026C18.1411 43.4828 18.4392 43.3594 18.75 43.3594C19.0608 43.3594 19.3589 43.4828 19.5786 43.7026C19.7984 43.9224 19.9219 44.2204 19.9219 44.5312C19.9199 44.6098 19.912 44.6882 19.8984 44.7656C19.8857 44.8391 19.862 44.9102 19.8281 44.9766C19.8025 45.0513 19.767 45.1222 19.7227 45.1875C19.6794 45.2489 19.6324 45.3076 19.582 45.3633C19.3573 45.5772 19.0602 45.6986 18.75 45.7031Z" fill="#02998A"></path><path d="M24.6094 35.1562H22.3992V32.8125H24.6094V35.1562ZM18.8438 35.1562H15.2871V32.8125H18.8438V35.1562ZM11.7316 35.1562H8.20312L8.17617 32.8125H8.27578H11.7316V35.1562ZM4.14961 33.5273C3.06453 32.4917 2.42028 31.0777 2.35078 29.5793L4.69453 29.468C4.73622 30.3665 5.1228 31.2144 5.77383 31.8352L4.14961 33.5273ZM32.8125 28.125V25.7812H35.1562V28.084L32.8125 28.125ZM4.6875 25.9688H2.34375V22.4121H4.6875V25.9688ZM35.1562 22.2258H32.8125V18.6703H35.1562V22.2258ZM4.6875 18.8566H2.34375V15.3012H4.6875V18.8566ZM35.1562 15.1172H32.8125V11.5594H35.1562V15.1172ZM4.6875 11.7445H2.34375V8.20312L4.6875 8.18906V11.7445ZM32.8125 8.05313C32.775 7.15415 32.3932 6.30404 31.7461 5.67891L33.375 3.99609C34.4559 5.03736 35.0938 6.45515 35.1562 7.95469L32.8125 8.05313ZM5.65781 5.77734L3.96094 4.16133C4.99316 3.07332 6.40517 2.42524 7.90312 2.35195L8.02031 4.6957C7.12315 4.73955 6.27723 5.12685 5.65781 5.77734ZM29.3508 4.6875H25.7414V2.34375H29.2969L29.3508 4.6875ZM22.1859 4.6875H18.6328V2.34375H22.1895L22.1859 4.6875ZM15.0738 4.6875H11.5184V2.34375H15.0738V4.6875Z" fill="#FDB62F"></path><path d="M50.3906 28.125H29.2969C26.708 28.125 24.6094 30.2237 24.6094 32.8125V53.9062C24.6094 56.4951 26.708 58.5938 29.2969 58.5938H50.3906C52.9795 58.5938 55.0781 56.4951 55.0781 53.9062V32.8125C55.0781 30.2237 52.9795 28.125 50.3906 28.125Z" fill="#A7D6DD"></path><path d="M30.4688 43.3594L24.6094 49.2188V53.9062C24.6094 55.1495 25.1032 56.3417 25.9823 57.2208C26.8614 58.0999 28.0537 58.5938 29.2969 58.5938H45.7031L36.3281 49.2188L30.4688 43.3594Z" fill="#83BEB9"></path><path d="M36.3281 49.2188L45.7031 58.5938H50.3906C51.6338 58.5938 52.8261 58.0999 53.7052 57.2208C54.5843 56.3417 55.0781 55.1495 55.0781 53.9062V44.5312L48.0469 37.5L36.3281 49.2188Z" fill="#02998A"></path><path d="M31.6406 37.5C32.935 37.5 33.9844 36.4507 33.9844 35.1562C33.9844 33.8618 32.935 32.8125 31.6406 32.8125C30.3462 32.8125 29.2969 33.8618 29.2969 35.1562C29.2969 36.4507 30.3462 37.5 31.6406 37.5Z" fill="#FF6536"></path><path d="M32.8125 62.1094H33.9844V64.4531C33.9844 65.0747 34.2313 65.6709 34.6708 66.1104C35.1104 66.5499 35.7065 66.7969 36.3281 66.7969H43.3594C43.981 66.7969 44.5771 66.5499 45.0167 66.1104C45.4562 65.6709 45.7031 65.0747 45.7031 64.4531V57.4219C45.7031 56.1787 45.2093 54.9864 44.3302 54.1073C43.4511 53.2282 42.2588 52.7344 41.0156 52.7344H38.6719C37.4287 52.7344 36.2364 53.2282 35.3573 54.1073C34.4782 54.9864 33.9844 56.1787 33.9844 57.4219H32.8125C32.1909 57.4219 31.5948 57.6688 31.1552 58.1083C30.7157 58.5479 30.4688 59.144 30.4688 59.7656C30.4688 60.3872 30.7157 60.9834 31.1552 61.4229C31.5948 61.8624 32.1909 62.1094 32.8125 62.1094Z" fill="#FFDAAA"></path></svg>