<svg xmlns="http://www.w3.org/2000/svg" width="63" height="73" viewBox="0 0 63 73" fill="none"><path d="M59.442 48.7489C57.4799 54.0666 54.5125 58.6904 50.6211 62.4905C46.1917 66.8157 40.3917 70.2526 33.3819 72.7043C33.1519 72.7845 32.9119 72.8502 32.6707 72.8987C32.3521 72.9616 32.028 72.9956 31.7066 73H31.6437C31.3012 73 30.957 72.9655 30.6156 72.8987C30.3744 72.8502 30.1377 72.7845 29.9088 72.706C22.8907 70.2582 17.0835 66.8229 12.6496 62.4977C8.75655 58.6976 5.7897 54.0767 3.83036 48.7589C0.267573 39.0904 0.470301 28.4393 0.633487 19.8802L0.636271 19.7487C0.669131 19.042 0.690295 18.2995 0.701991 17.4797C0.761584 13.4547 3.9618 10.1247 7.98741 9.90024C16.3806 9.43185 22.8735 6.69446 28.4212 1.28706L28.4697 1.24251C29.3909 0.397621 30.5515 -0.0167474 31.7066 0.000517973C32.8205 0.0149986 33.93 0.42881 34.8183 1.24251L34.8656 1.28706C40.4145 6.69446 46.9074 9.43185 55.3005 9.90024C59.3262 10.1247 62.5264 13.4547 62.586 17.4797C62.5977 18.3051 62.6188 19.0464 62.6517 19.7487L62.6534 19.8044C62.816 28.3797 63.0176 39.0519 59.442 48.7489Z" fill="#00DD80"></path><path d="M59.4424 48.7494C57.4803 54.0671 54.5129 58.6909 50.6215 62.4909C46.1921 66.8162 40.3921 70.2531 33.3823 72.7048C33.1523 72.785 32.9123 72.8507 32.6711 72.8991C32.3525 72.9621 32.0284 72.996 31.707 73.0005V0.000976562C32.8209 0.0154572 33.9304 0.429268 34.8187 1.24297L34.866 1.28752C40.4149 6.69492 46.9078 9.43231 55.3009 9.9007C59.3266 10.1251 62.5268 13.4551 62.5864 17.4802C62.5981 18.3056 62.6192 19.0469 62.6521 19.7492L62.6538 19.8049C62.8164 28.3802 63.018 39.0524 59.4424 48.7494Z" fill="#00AA63"></path><path d="M49.8362 36.4999C49.8362 46.5098 41.7087 54.658 31.707 54.6936H31.643C21.6118 54.6936 13.4492 46.5316 13.4492 36.4999C13.4492 26.4687 21.6118 18.3066 31.643 18.3066H31.707C41.7087 18.3423 49.8362 26.4904 49.8362 36.4999Z" fill="white"></path><path d="M49.8362 36.4999C49.8362 46.5098 41.7087 54.658 31.707 54.6936V18.3066C41.7087 18.3423 49.8362 26.4904 49.8362 36.4999Z" fill="#E1EBF0"></path><path d="M39.9005 33.8801L31.7067 42.075L29.9362 43.8456C29.5179 44.2638 28.9693 44.4727 28.4213 44.4727C27.8727 44.4727 27.3246 44.2638 26.9058 43.8456L23.0991 40.0372C22.2625 39.2006 22.2625 37.8456 23.0991 37.0085C23.9345 36.172 25.2912 36.172 26.1278 37.0085L28.4213 39.302L36.8718 30.8515C37.7083 30.0144 39.0651 30.0144 39.9005 30.8515C40.737 31.688 40.737 33.0447 39.9005 33.8801Z" fill="#B4D2D7"></path><path d="M39.9008 33.8801L31.707 42.075V36.016L36.8722 30.8515C37.7087 30.0144 39.0654 30.0144 39.9008 30.8515C40.7374 31.688 40.7374 33.0447 39.9008 33.8801Z" fill="#6FA5AA"></path></svg>