<?xml version="1.0" encoding="UTF-8"?>
<svg xmlns="http://www.w3.org/2000/svg" width="388" height="37" viewBox="0 0 388 37" fill="none">
  <g clip-path="url(#clip0_511_14)">
    <path fill-rule="evenodd" clip-rule="evenodd" d="M289.75 24.6278H286.03L283.237 13.9798C283.105 13.4898 282.824 13.0578 282.41 12.8538C281.336 12.3111 280.186 11.9316 279 11.7278V11.3178H284.995C285.822 11.3178 286.443 11.9338 286.546 12.6478L287.994 20.3278L291.714 11.3178H295.332L289.75 24.6278ZM297.4 24.6278H293.886L296.78 11.3178H300.294L297.4 24.6278ZM304.841 15.0048C304.945 14.2878 305.565 13.8778 306.289 13.8778C307.427 13.7758 308.666 13.9808 309.7 14.4918L310.32 11.6268C309.299 11.2255 308.214 11.0163 307.117 11.0098C303.707 11.0098 301.224 12.8538 301.224 15.4118C301.224 17.3588 302.982 18.3808 304.224 18.9968C305.566 19.6098 306.084 20.0198 305.98 20.6338C305.98 21.5548 304.946 21.9648 303.913 21.9648C302.673 21.9648 301.431 21.6578 300.295 21.1448L299.675 24.0128C300.915 24.5228 302.258 24.7298 303.5 24.7298C307.324 24.8298 309.701 22.9888 309.701 20.2238C309.701 16.7438 304.842 16.5388 304.842 15.0038L304.841 15.0048ZM322.001 24.6278L319.21 11.3178H316.212C315.592 11.3178 314.972 11.7278 314.764 12.3418L309.597 24.6278H313.215L313.937 22.6828H318.382L318.796 24.6278H322H322.001ZM316.729 14.9018L317.761 19.9178H314.867L316.729 14.9018Z" fill="#172B85"></path>
  </g>
  <path fill-rule="evenodd" clip-rule="evenodd" d="M76.7653 20.7628C76.7653 20.0408 76.3883 20.0878 76.0283 20.0808V19.8718C76.3403 19.8868 76.6613 19.8868 76.9743 19.8868C77.3103 19.8868 77.7673 19.8718 78.3613 19.8718C80.4373 19.8718 81.5683 21.2598 81.5683 22.6818C81.5683 23.4768 81.1033 25.4748 78.2643 25.4748C77.8563 25.4748 77.4793 25.4588 77.1023 25.4588C76.7423 25.4588 76.3883 25.4658 76.0283 25.4748V25.2648C76.5083 25.2168 76.7423 25.2018 76.7653 24.6548V20.7628ZM77.5513 24.5268C77.5513 25.1448 77.9913 25.2168 78.3853 25.2168C80.1173 25.2168 80.6853 23.9088 80.6853 22.7128C80.6853 21.2128 79.7233 20.1288 78.1763 20.1288C77.8463 20.1288 77.6963 20.1528 77.5513 20.1608V24.5268ZM81.8493 25.2658H82.0003C82.2243 25.2658 82.3843 25.2658 82.3843 24.9998V22.8248C82.3843 22.4728 82.2643 22.4238 81.9673 22.2638V22.1358C82.3443 22.0218 82.7933 21.8708 82.8253 21.8458C82.8692 21.8196 82.9193 21.8058 82.9703 21.8058C83.0103 21.8058 83.0263 21.8538 83.0263 21.9188V24.9998C83.0263 25.2658 83.2023 25.2658 83.4273 25.2658H83.5633V25.4748C83.2903 25.4748 83.0093 25.4588 82.7213 25.4588C82.4333 25.4588 82.1443 25.4658 81.8483 25.4748V25.2648L81.8493 25.2658ZM82.7073 20.5698C82.6033 20.5653 82.505 20.5215 82.432 20.4472C82.3591 20.373 82.317 20.2738 82.3143 20.1698C82.32 20.068 82.3633 19.9719 82.436 19.9003C82.5087 19.8288 82.6054 19.7869 82.7073 19.7828C82.9153 19.7828 83.1003 19.9528 83.1003 20.1688C83.1006 20.2739 83.0595 20.3748 82.986 20.4498C82.9125 20.5249 82.8124 20.568 82.7073 20.5698V20.5698ZM84.3263 22.8738C84.3263 22.5768 84.2373 22.4968 83.8613 22.3438V22.1918C84.2053 22.0798 84.5343 21.9748 84.9193 21.8058C84.9433 21.8058 84.9673 21.8218 84.9673 21.8858V22.4078C85.4243 22.0798 85.8173 21.8058 86.3553 21.8058C87.0353 21.8058 87.2763 22.3038 87.2763 22.9298V24.9998C87.2763 25.2658 87.4533 25.2658 87.6773 25.2658H87.8223V25.4748C87.5403 25.4748 87.2603 25.4588 86.9723 25.4588C86.6833 25.4588 86.3943 25.4658 86.1053 25.4748V25.2648H86.2503C86.4753 25.2648 86.6343 25.2648 86.6343 24.9998V22.9218C86.6343 22.4638 86.3553 22.2398 85.8983 22.2398C85.6413 22.2398 85.2323 22.4478 84.9673 22.6258V24.9998C84.9673 25.2658 85.1443 25.2658 85.3683 25.2658H85.5123V25.4748C85.2323 25.4748 84.9523 25.4588 84.6623 25.4588C84.3743 25.4588 84.0853 25.4658 83.7973 25.4748V25.2648H83.9423C84.1663 25.2648 84.3263 25.2648 84.3263 24.9998V22.8738ZM88.4313 23.2598C88.4153 23.3318 88.4153 23.4518 88.4313 23.7248C88.4783 24.4868 88.9683 25.1128 89.6093 25.1128C90.0513 25.1128 90.3963 24.8728 90.6923 24.5758L90.8043 24.6878C90.4343 25.1778 89.9783 25.5948 89.3213 25.5948C88.0463 25.5948 87.7903 24.3588 87.7903 23.8448C87.7903 22.2718 88.8483 21.8048 89.4083 21.8048C90.0583 21.8048 90.7563 22.2148 90.7643 23.0658C90.7643 23.1158 90.7643 23.1628 90.7563 23.2108L90.6843 23.2598H88.4303H88.4313ZM89.8513 23.0018C90.0513 23.0018 90.0743 22.8978 90.0743 22.8018C90.0743 22.3918 89.8263 22.0628 89.3773 22.0628C88.8883 22.0628 88.5513 22.4228 88.4553 23.0028H89.8513V23.0018ZM90.9483 25.2658H91.1653C91.3893 25.2658 91.5493 25.2658 91.5493 24.9998V22.7448C91.5493 22.4968 91.2533 22.4478 91.1323 22.3838V22.2638C91.7173 22.0138 92.0383 21.8058 92.1123 21.8058C92.1593 21.8058 92.1823 21.8298 92.1823 21.9108V22.6328H92.1993C92.3993 22.3198 92.7373 21.8058 93.2253 21.8058C93.4253 21.8058 93.6823 21.9418 93.6823 22.2308C93.6823 22.4478 93.5303 22.6408 93.3063 22.6408C93.0563 22.6408 93.0563 22.4478 92.7763 22.4478C92.6403 22.4478 92.1913 22.6328 92.1913 23.1148V24.9998C92.1913 25.2658 92.3513 25.2658 92.5753 25.2658H93.0243V25.4748C92.5833 25.4658 92.2473 25.4588 91.9023 25.4588C91.5743 25.4588 91.2373 25.4658 90.9483 25.4748V25.2648V25.2658ZM94.0353 24.3588C94.1393 24.8888 94.4593 25.3388 95.0453 25.3388C95.5183 25.3388 95.6943 25.0488 95.6943 24.7688C95.6943 23.8208 93.9473 24.1258 93.9473 22.8338C93.9473 22.3838 94.3073 21.8058 95.1893 21.8058C95.4463 21.8058 95.7903 21.8788 96.1033 22.0398L96.1593 22.8578H95.9753C95.8953 22.3518 95.6153 22.0628 95.1013 22.0628C94.7803 22.0628 94.4763 22.2478 94.4763 22.5928C94.4763 23.5328 96.3363 23.2428 96.3363 24.5028C96.3363 25.0328 95.9113 25.5948 94.9563 25.5948C94.6132 25.585 94.2778 25.4913 93.9793 25.3218L93.8903 24.3988L94.0353 24.3588ZM103.575 21.3238H103.375C103.222 20.3858 102.556 20.0078 101.659 20.0078C100.736 20.0078 99.3983 20.6258 99.3983 22.5518C99.3983 24.1738 100.553 25.3378 101.787 25.3378C102.58 25.3378 103.239 24.7918 103.399 23.9488L103.583 23.9968L103.399 25.1688C103.062 25.3788 102.156 25.5948 101.626 25.5948C99.7513 25.5948 98.5643 24.3828 98.5643 22.5768C98.5643 20.9308 100.032 19.7508 101.603 19.7508C102.253 19.7508 102.877 19.9608 103.495 20.1768L103.575 21.3238ZM103.865 25.2658H104.016C104.241 25.2658 104.401 25.2658 104.401 24.9998V20.5298C104.401 20.0078 104.281 19.9928 103.976 19.9038V19.7748C104.296 19.6708 104.634 19.5268 104.802 19.4298C104.89 19.3828 104.954 19.3418 104.978 19.3418C105.027 19.3418 105.043 19.3898 105.043 19.4548V24.9998C105.043 25.2658 105.219 25.2658 105.443 25.2658H105.579V25.4748C105.308 25.4748 105.027 25.4588 104.739 25.4588C104.449 25.4588 104.161 25.4658 103.864 25.4748V25.2648L103.865 25.2658ZM109.012 25.0328C109.012 25.1778 109.099 25.1848 109.235 25.1848C109.332 25.1848 109.452 25.1778 109.557 25.1778V25.3468C109.212 25.3778 108.554 25.5468 108.401 25.5948L108.361 25.5708V24.9208C107.881 25.3138 107.511 25.5948 106.941 25.5948C106.509 25.5948 106.061 25.3138 106.061 24.6398V22.5848C106.061 22.3748 106.028 22.1748 105.581 22.1348V21.9828C105.869 21.9748 106.509 21.9268 106.613 21.9268C106.703 21.9268 106.703 21.9828 106.703 22.1598V24.2298C106.703 24.4708 106.703 25.1608 107.4 25.1608C107.672 25.1608 108.033 24.9528 108.37 24.6718V22.5118C108.37 22.3518 107.985 22.2638 107.697 22.1838V22.0398C108.417 21.9898 108.867 21.9268 108.947 21.9268C109.012 21.9268 109.012 21.9828 109.012 22.0708V25.0328ZM110.607 22.3828C110.927 22.1118 111.361 21.8058 111.801 21.8058C112.731 21.8058 113.293 22.6178 113.293 23.4918C113.293 24.5428 112.523 25.5948 111.376 25.5948C110.783 25.5948 110.471 25.4018 110.262 25.3138L110.022 25.4978L109.854 25.4108C109.925 24.9368 109.966 24.4708 109.966 23.9808V20.5308C109.966 20.0078 109.846 19.9928 109.541 19.9038V19.7748C109.861 19.6708 110.198 19.5268 110.366 19.4298C110.455 19.3828 110.519 19.3418 110.543 19.3418C110.591 19.3418 110.607 19.3908 110.607 19.4548V22.3838V22.3828ZM110.607 24.5668C110.607 24.8718 110.896 25.3868 111.433 25.3868C112.29 25.3868 112.651 24.5428 112.651 23.8288C112.651 22.9618 111.994 22.2388 111.369 22.2388C111.071 22.2388 110.823 22.4328 110.607 22.6178V24.5678V24.5668ZM80.3473 29.4118L80.3553 29.4038V27.7658C80.3553 27.4078 80.1063 27.3558 79.9753 27.3558H79.8803V27.2238C80.0863 27.2238 80.2863 27.2418 80.4903 27.2418C80.6703 27.2418 80.8503 27.2238 81.0283 27.2238V27.3548H80.9633C80.7793 27.3548 80.5733 27.3898 80.5733 27.9098V29.8968C80.5733 30.0498 80.5783 30.2028 80.6003 30.3388H80.4343L78.1873 27.8298V29.6298C78.1873 30.0098 78.2603 30.1398 78.5973 30.1398H78.6713V30.2718C78.4833 30.2718 78.2963 30.2548 78.1083 30.2548C77.9123 30.2548 77.7113 30.2718 77.5153 30.2718V30.1408H77.5753C77.8773 30.1408 77.9683 29.9348 77.9683 29.5868V27.7468C77.9685 27.6949 77.9583 27.6435 77.9384 27.5955C77.9185 27.5476 77.8893 27.5041 77.8525 27.4675C77.8156 27.431 77.7719 27.4021 77.7238 27.3826C77.6757 27.363 77.6242 27.3533 77.5723 27.3538H77.5153V27.2238C77.6803 27.2238 77.8513 27.2408 78.0163 27.2408C78.1473 27.2408 78.2743 27.2228 78.4053 27.2228L80.3463 29.4108L80.3473 29.4118Z" fill="#1A1919"></path>
  <path fill-rule="evenodd" clip-rule="evenodd" d="M80.5991 30.3559L80.4191 30.3499L78.2051 27.8799V29.6299C78.2111 30.0099 78.2681 30.1179 78.5971 30.1219H78.6901V30.2909H78.6701C78.4821 30.2909 78.2941 30.2729 78.1081 30.2729C77.9131 30.2729 77.7121 30.2909 77.5151 30.2909H77.4951V30.1209H77.5761C77.8641 30.1209 77.9461 29.9349 77.9501 29.5869V27.7469C77.9501 27.6974 77.9403 27.6485 77.9213 27.6028C77.9022 27.5572 77.8743 27.5158 77.8392 27.481C77.804 27.4462 77.7623 27.4188 77.7165 27.4002C77.6706 27.3816 77.6216 27.3724 77.5721 27.3729H77.4961V27.2039H77.5151C77.6821 27.2039 77.8521 27.2209 78.0151 27.2209C78.1461 27.2209 78.2721 27.2039 78.4191 27.2109L80.3361 29.3709V27.7649C80.3341 27.4179 80.1031 27.3759 79.9761 27.3729H79.8601V27.2039H79.8801C80.0861 27.2039 80.2861 27.2209 80.4901 27.2209C80.6681 27.2209 80.8471 27.2039 81.0271 27.2039H81.0461V27.3739H80.9621C80.7821 27.3779 80.5971 27.3939 80.5921 27.9089V29.8959C80.5921 30.0489 80.5971 30.2019 80.6181 30.3339L80.6211 30.3559H80.6001H80.5991ZM80.4331 30.3179H80.5781C80.5603 30.178 80.5527 30.0369 80.5551 29.8959V27.9089C80.5551 27.3849 80.7751 27.3349 80.9621 27.3349H81.0081V27.2419C80.8361 27.2429 80.6641 27.2589 80.4901 27.2589C80.2901 27.2589 80.0961 27.2429 79.9001 27.2419L79.8991 27.3349H79.9761C80.1101 27.3349 80.3741 27.3949 80.3741 27.7649L80.3681 29.4159L80.3601 29.4249L80.3451 29.4389L78.4051 27.2419C78.2751 27.2419 78.1491 27.2589 78.0161 27.2589C77.8561 27.2589 77.6921 27.2429 77.5341 27.2419V27.3349H77.5721C77.7771 27.3349 77.9871 27.4919 77.9871 27.7479V29.5869C77.9871 29.9369 77.8901 30.1599 77.5771 30.1609L77.5341 30.1599V30.2529C77.7241 30.2519 77.9181 30.2359 78.1081 30.2359C78.2901 30.2359 78.4721 30.2519 78.6521 30.2529V30.1609H78.5971C78.2531 30.1599 78.1681 30.0099 78.1681 29.6299V27.7809L80.4331 30.3179ZM80.3471 29.4109L80.3601 29.3989L80.3471 29.4109ZM80.3371 29.4029V29.4009L80.3331 29.3979L80.3361 29.4029H80.3371ZM81.6801 27.4419C81.3531 27.4419 81.3401 27.5209 81.2751 27.8389H81.1441C81.1611 27.7169 81.1821 27.5949 81.1961 27.4679C81.2131 27.3449 81.2221 27.2229 81.2221 27.0969H81.3271C81.3621 27.2279 81.4711 27.2229 81.5891 27.2229H83.8391C83.9581 27.2229 84.0661 27.2189 84.0751 27.0879L84.1801 27.1059C84.1631 27.2229 84.1451 27.3409 84.1321 27.4599C84.1241 27.5769 84.1241 27.6949 84.1241 27.8129L83.9931 27.8609C83.9831 27.7009 83.9621 27.4409 83.6701 27.4409H82.9541V29.7649C82.9541 30.1019 83.1071 30.1409 83.3161 30.1409H83.4001V30.2719C83.2301 30.2719 82.9251 30.2549 82.6901 30.2549C82.4271 30.2549 82.1221 30.2719 81.9521 30.2719V30.1409H82.0351C82.2751 30.1409 82.3971 30.1189 82.3971 29.7739V27.4419H81.6801Z" fill="#1A1919"></path>
  <path fill-rule="evenodd" clip-rule="evenodd" d="M83.4001 30.2914C83.2281 30.2914 82.9231 30.2734 82.6891 30.2734C82.4271 30.2734 82.1221 30.2914 81.9511 30.2914H81.9321V30.1214H82.0341C82.2741 30.1164 82.3711 30.1134 82.3771 29.7744V27.4604H81.6801V27.4224H82.4131V29.7744C82.4131 30.1254 82.2731 30.1614 82.0331 30.1614H81.9701V30.2534C82.1421 30.2524 82.4361 30.2364 82.6891 30.2364C82.9161 30.2364 83.2071 30.2524 83.3801 30.2534V30.1614H83.3161C83.1061 30.1614 82.9361 30.1084 82.9361 29.7654V27.4224H83.6701C83.9631 27.4234 84.0011 27.6724 84.0101 27.8354L84.1051 27.8004C84.1051 27.6864 84.1051 27.5724 84.1131 27.4574C84.1261 27.3444 84.1421 27.2334 84.1581 27.1214L84.0921 27.1114C84.0721 27.2374 83.9491 27.2444 83.8391 27.2424H81.5671C81.4641 27.2424 81.3521 27.2374 81.3131 27.1164H81.2411C81.2411 27.2364 81.2321 27.3544 81.2161 27.4704C81.2021 27.5904 81.1831 27.7054 81.1661 27.8214H81.2601C81.3171 27.5164 81.3541 27.4184 81.6801 27.4224V27.4604C81.3571 27.4674 81.3641 27.5204 81.2931 27.8444L81.2901 27.8584H81.1221L81.1241 27.8364C81.1421 27.7144 81.1641 27.5914 81.1771 27.4644C81.1951 27.3444 81.2031 27.2224 81.2031 27.0974V27.0774H81.3421L81.3451 27.0914C81.3751 27.2014 81.4551 27.2024 81.5671 27.2044H83.8391C83.9611 27.2024 84.0491 27.2014 84.0571 27.0864L84.0581 27.0664L84.0781 27.0704L84.2021 27.0904L84.1981 27.1094C84.1811 27.2264 84.1641 27.3434 84.1511 27.4604C84.1431 27.5774 84.1431 27.6954 84.1431 27.8134V27.8264L84.1301 27.8314L83.9761 27.8884L83.9751 27.8624C83.9631 27.6984 83.9451 27.4604 83.6701 27.4604H82.9741V29.7654C82.9781 30.0954 83.1081 30.1184 83.3161 30.1224H83.4191V30.2914H83.4001ZM84.3201 30.1414H84.3801C84.5371 30.1414 84.7041 30.1194 84.7041 29.8914V27.6044C84.7041 27.3764 84.5371 27.3544 84.3811 27.3544H84.3191V27.2244C84.5851 27.2244 85.0391 27.2414 85.4051 27.2414C85.7721 27.2414 86.2251 27.2234 86.5221 27.2234C86.5141 27.4114 86.5181 27.7004 86.5321 27.8924L86.4001 27.9274C86.3791 27.6434 86.3261 27.4164 85.8681 27.4164H85.2631V28.5604H85.7811C86.0421 28.5604 86.0991 28.4124 86.1251 28.1754H86.2561C86.2391 28.5119 86.2391 28.849 86.2561 29.1854L86.1261 29.2104C86.0991 28.9494 86.0861 28.7794 85.7851 28.7794H85.2631V29.7964C85.2631 30.0804 85.5151 30.0804 85.7931 30.0804C86.3181 30.0804 86.5491 30.0454 86.6801 29.5474L86.8011 29.5774C86.7434 29.8072 86.6941 30.039 86.6531 30.2724C86.3731 30.2724 85.8731 30.2554 85.4801 30.2554C85.0871 30.2554 84.5681 30.2724 84.3201 30.2724V30.1414Z" fill="#1A1919"></path>
  <path fill-rule="evenodd" clip-rule="evenodd" d="M86.6538 30.2921C86.3738 30.2921 85.8728 30.2741 85.4808 30.2741C85.0878 30.2741 84.5698 30.2921 84.3208 30.2921H84.3008V30.1221H84.3808C84.5388 30.1201 84.6828 30.1061 84.6848 29.8921V27.6051C84.6828 27.3911 84.5388 27.3771 84.3808 27.3751H84.3008V27.2051H84.3198C84.5858 27.2051 85.0398 27.2221 85.4048 27.2221C85.7718 27.2221 86.2248 27.2051 86.5218 27.2051H86.5418L86.5408 27.2251C86.533 27.4471 86.536 27.6694 86.5498 27.8911V27.9071L86.5358 27.9111L86.3818 27.9511V27.9291C86.3558 27.6461 86.3178 27.4391 85.8688 27.4351H85.2808V28.5411H85.7808C86.0328 28.5391 86.0768 28.4111 86.1068 28.1751L86.1078 28.1571H86.2758V28.1771C86.2594 28.5129 86.2594 28.8493 86.2758 29.1851V29.2001L86.2598 29.2041L86.1078 29.2341V29.2141C86.0768 28.9471 86.0748 28.8011 85.7848 28.7981H85.2808V29.7961C85.2808 30.0621 85.5098 30.0611 85.7938 30.0621C86.3188 30.0591 86.5298 30.0331 86.6608 29.5431L86.6658 29.5261L86.6838 29.5281L86.8238 29.5651L86.8198 29.5831C86.7623 29.8123 86.7129 30.0434 86.6718 30.2761L86.6678 30.2921H86.6538ZM86.6378 30.2541C86.6758 30.0341 86.7258 29.8131 86.7788 29.5931L86.6938 29.5711C86.5628 30.0601 86.3098 30.1031 85.7948 30.1001C85.5198 30.1001 85.2448 30.1001 85.2438 29.7971V28.7601H85.7858C86.0908 28.7571 86.1218 28.9411 86.1428 29.1901L86.2378 29.1701C86.2205 28.8453 86.2205 28.5198 86.2378 28.1951H86.1428C86.1188 28.4231 86.0478 28.5821 85.7818 28.5801H85.2438V27.3971H85.8688C86.3228 27.3941 86.3988 27.6291 86.4178 27.9041L86.5118 27.8781C86.5 27.6666 86.4973 27.4548 86.5038 27.2431C86.2068 27.2441 85.7648 27.2601 85.4058 27.2601C85.0478 27.2601 84.6058 27.2441 84.3398 27.2431V27.3361H84.3818C84.5368 27.3361 84.7218 27.3631 84.7238 27.6051V29.8931C84.7228 30.1341 84.5368 30.1611 84.3818 30.1621H84.3398V30.2541C84.5938 30.2541 85.0978 30.2371 85.4808 30.2371C85.8658 30.2371 86.3568 30.2531 86.6378 30.2541V30.2541ZM87.3908 27.6871C87.3908 27.3681 87.2168 27.3551 87.0808 27.3551H87.0018V27.2251C87.1418 27.2251 87.4118 27.2421 87.6788 27.2421C87.9398 27.2421 88.1488 27.2241 88.3808 27.2241C88.9298 27.2241 89.4198 27.3731 89.4198 27.9941C89.4198 28.3861 89.1578 28.6261 88.8128 28.7621L89.5588 29.8801C89.6808 30.0641 89.7678 30.1161 89.9818 30.1421V30.2731C89.8378 30.2731 89.6978 30.2561 89.5548 30.2561C89.4198 30.2561 89.2788 30.2731 89.1448 30.2731C88.8088 29.8331 88.5208 29.3611 88.2368 28.8571H87.9498V29.7931C87.9498 30.1291 88.1058 30.1421 88.3058 30.1421H88.3858V30.2731C88.1358 30.2731 87.8838 30.2561 87.6358 30.2561C87.4258 30.2561 87.2208 30.2731 87.0028 30.2731V30.1421H87.0808C87.2428 30.1421 87.3908 30.0681 87.3908 29.9061V27.6861V27.6871ZM87.9488 28.7001H88.1628C88.5988 28.7001 88.8338 28.5341 88.8338 28.0191C88.8338 27.6301 88.5858 27.3821 88.1968 27.3821C88.0668 27.3821 88.0098 27.3951 87.9488 27.3991V28.7001Z" fill="#1A1919"></path>
  <path fill-rule="evenodd" clip-rule="evenodd" d="M89.9814 30.2921C89.8354 30.2921 89.6964 30.2741 89.5534 30.2741C89.4204 30.2741 89.2804 30.2921 89.1284 30.2841C88.7934 29.8441 88.5074 29.3761 88.2254 28.8771H87.9674V29.7921C87.9724 30.1211 88.1044 30.1181 88.3054 30.1221H88.4034V30.2921H88.3834C88.1354 30.2921 87.8814 30.2741 87.6334 30.2741C87.4264 30.2741 87.2214 30.2921 87.0014 30.2921H86.9824V30.1221H87.0804C87.2374 30.1221 87.3704 30.0531 87.3704 29.9061V27.6861C87.3674 27.3771 87.2164 27.3791 87.0804 27.3741H86.9824V27.2051H87.0024C87.1424 27.2051 87.4124 27.2221 87.6784 27.2221C87.9384 27.2221 88.1484 27.2051 88.3804 27.2051C88.9304 27.2061 89.4364 27.3581 89.4374 27.9931C89.4374 28.3871 89.1774 28.6331 88.8414 28.7701L89.5734 29.8701C89.6954 30.0501 89.7714 30.0961 89.9834 30.1231L89.9994 30.1251V30.2921H89.9814ZM87.9484 28.8391H88.2474L88.2524 28.8491C88.5364 29.3501 88.8224 29.8221 89.1444 30.2541C89.2774 30.2541 89.4174 30.2371 89.5534 30.2371C89.6924 30.2371 89.8274 30.2521 89.9634 30.2541V30.1581C89.7584 30.1331 89.6624 30.0711 89.5434 29.8901L88.7834 28.7531L88.8054 28.7451C89.1464 28.6101 89.3994 28.3771 89.4004 27.9931C89.4004 27.3871 88.9284 27.2461 88.3804 27.2431C88.1504 27.2431 87.9404 27.2611 87.6784 27.2611C87.4224 27.2611 87.1634 27.2441 87.0204 27.2431V27.3361H87.0804C87.2164 27.3361 87.4084 27.3591 87.4084 27.6861V29.9061C87.4084 30.0821 87.2444 30.1611 87.0804 30.1621H87.0204V30.2541C87.2304 30.2541 87.4294 30.2371 87.6344 30.2371C87.8774 30.2371 88.1244 30.2531 88.3654 30.2541V30.1621H88.3054C88.1074 30.1621 87.9294 30.1371 87.9294 29.7921V28.8391H87.9494H87.9484ZM87.9484 28.7191H87.9294V27.3821L87.9464 27.3801C88.0064 27.3751 88.0644 27.3631 88.1964 27.3631C88.5944 27.3631 88.8524 27.6221 88.8534 28.0201C88.8514 28.5411 88.6024 28.7191 88.1624 28.7191H87.9484ZM88.1624 28.6821C88.5934 28.6771 88.8124 28.5271 88.8154 28.0201C88.8134 27.6381 88.5764 27.4021 88.1964 27.4001C88.0794 27.4001 88.0234 27.4101 87.9674 27.4161V28.6821H88.1624ZM92.9434 29.4121L92.9514 29.4041V27.7661C92.9514 27.4081 92.7034 27.3561 92.5714 27.3561H92.4764V27.2241C92.6814 27.2241 92.8814 27.2421 93.0864 27.2421C93.2664 27.2421 93.4444 27.2241 93.6244 27.2241V27.3551H93.5584C93.3754 27.3551 93.1704 27.3901 93.1704 27.9101V29.8971C93.1704 30.0501 93.1744 30.2031 93.1964 30.3391H93.0314L90.7844 27.8311V29.6311C90.7844 30.0111 90.8584 30.1411 91.1944 30.1411H91.2684V30.2731C91.0814 30.2731 90.8934 30.2561 90.7054 30.2561C90.5084 30.2561 90.3084 30.2731 90.1124 30.2731V30.1421H90.1724C90.4744 30.1421 90.5664 29.9361 90.5664 29.5881V27.7481C90.5667 27.6961 90.5566 27.6445 90.5367 27.5964C90.5168 27.5484 90.4875 27.5048 90.4505 27.4682C90.4135 27.4316 90.3696 27.4027 90.3214 27.3833C90.2731 27.3639 90.2214 27.3543 90.1694 27.3551H90.1124V27.2251C90.2774 27.2251 90.4484 27.2421 90.6144 27.2421C90.7444 27.2421 90.8714 27.2241 91.0024 27.2241L92.9434 29.4121Z" fill="#1A1919"></path>
  <path fill-rule="evenodd" clip-rule="evenodd" d="M93.1958 30.3563L93.0168 30.3503L90.8028 27.8803V29.6303C90.8078 30.0103 90.8648 30.1183 91.1938 30.1223H91.2868V30.2913H91.2668C91.0788 30.2913 90.8918 30.2733 90.7048 30.2733C90.5098 30.2733 90.3088 30.2913 90.1118 30.2913H90.0918V30.1213H90.1728C90.4608 30.1213 90.5428 29.9353 90.5468 29.5863V27.7463C90.5469 27.6968 90.5372 27.6479 90.5182 27.6022C90.4992 27.5566 90.4713 27.5152 90.4361 27.4804C90.4009 27.4457 90.3591 27.4183 90.3132 27.3999C90.2673 27.3815 90.2182 27.3725 90.1688 27.3733H90.0928V27.2043H90.1128C90.2788 27.2043 90.4498 27.2213 90.6138 27.2213C90.7418 27.2213 90.8688 27.2043 91.0148 27.2103L92.9328 29.3723V27.7653C92.9318 27.4183 92.6988 27.3753 92.5728 27.3733H92.4568V27.2043H92.4768C92.6828 27.2043 92.8838 27.2213 93.0868 27.2213C93.2648 27.2213 93.4438 27.2043 93.6238 27.2043H93.6428V27.3743H93.5588C93.3788 27.3783 93.1928 27.3943 93.1888 27.9093V29.8963C93.1888 30.0493 93.1928 30.2013 93.2148 30.3353L93.2168 30.3563H93.1968H93.1958ZM93.0308 30.3183H93.1738C93.1561 30.1783 93.1485 30.0373 93.1508 29.8963V27.9093C93.1508 27.3853 93.3718 27.3363 93.5588 27.3353H93.6048V27.2423C93.4328 27.2443 93.2608 27.2593 93.0878 27.2593C92.8878 27.2593 92.6928 27.2443 92.4948 27.2423V27.3353H92.5728C92.7068 27.3363 92.9708 27.3953 92.9708 27.7653L92.9648 29.4163L92.9568 29.4253L92.9428 29.4393L91.0028 27.2423C90.8728 27.2423 90.7458 27.2593 90.6138 27.2593C90.4518 27.2593 90.2898 27.2443 90.1308 27.2423V27.3353H90.1688C90.2233 27.3346 90.2773 27.3448 90.3278 27.3652C90.3784 27.3856 90.4243 27.4159 90.463 27.4542C90.5017 27.4926 90.5324 27.5382 90.5533 27.5885C90.5742 27.6388 90.5849 27.6928 90.5848 27.7473V29.5863C90.5848 29.9363 90.4848 30.1603 90.1728 30.1613H90.1308V30.2533C90.3188 30.2523 90.5138 30.2363 90.7048 30.2363C90.8878 30.2363 91.0688 30.2523 91.2498 30.2533V30.1613H91.1938C90.8508 30.1613 90.7658 30.0113 90.7638 29.6303V27.7823L93.0308 30.3183ZM92.9428 29.4113L92.9578 29.3993L92.9428 29.4113ZM92.9328 29.4033V29.4013L92.9298 29.3983L92.9328 29.4033ZM94.3258 29.6483C94.2818 29.7963 94.2298 29.9103 94.2298 29.9883C94.2298 30.1193 94.4128 30.1413 94.5568 30.1413H94.6058V30.2723C94.4293 30.2619 94.2526 30.2562 94.0758 30.2553C93.9198 30.2553 93.7628 30.2633 93.6058 30.2723V30.1413H93.6328C93.8028 30.1413 93.9468 30.0413 94.0108 29.8573L94.7088 27.8533C94.7774 27.6769 94.8319 27.4953 94.8718 27.3103C95.0098 27.2615 95.1424 27.1988 95.2678 27.1233C95.2818 27.1183 95.2898 27.1133 95.3028 27.1133C95.3158 27.1133 95.3238 27.1133 95.3328 27.1283C95.3468 27.1623 95.3588 27.2013 95.3728 27.2363L96.1758 29.5213C96.2278 29.6733 96.2798 29.8353 96.3358 29.9673C96.3888 30.0893 96.4808 30.1413 96.6258 30.1413H96.6508V30.2723C96.2324 30.2511 95.8132 30.2511 95.3948 30.2723V30.1413H95.4428C95.5428 30.1413 95.7128 30.1243 95.7128 30.0143C95.6959 29.9066 95.6667 29.8013 95.6258 29.7003L95.4558 29.1933H94.4658L94.3258 29.6483ZM94.9628 27.7133H94.9538L94.5488 28.9493H95.3638L94.9638 27.7133H94.9628Z" fill="#1A1919"></path>
  <path fill-rule="evenodd" clip-rule="evenodd" d="M96.6489 30.2909C96.4491 30.2802 96.249 30.2742 96.0489 30.2729C95.8349 30.2729 95.6169 30.2829 95.3939 30.2909H95.3739V30.1209H95.4419C95.5419 30.1209 95.6919 30.0979 95.6919 30.0139C95.6939 29.9639 95.6549 29.8439 95.6069 29.7059L95.4409 29.2119H94.4779L94.3429 29.6529C94.2989 29.8019 94.2459 29.9169 94.2459 29.9879C94.2479 30.0949 94.4109 30.1209 94.5559 30.1209H94.6229V30.2909H94.6029C94.4275 30.2804 94.2517 30.2744 94.0759 30.2729C93.9199 30.2729 93.7619 30.2829 93.6059 30.2909H93.5859V30.1209H93.6309C93.7929 30.1209 93.9289 30.0279 93.9909 29.8509L94.6909 27.8459C94.7469 27.6839 94.8259 27.4659 94.8639 27.2919C95.0018 27.2429 95.1345 27.1802 95.2599 27.1049C95.2719 27.1009 95.2839 27.0949 95.3019 27.0949C95.3119 27.0949 95.3359 27.0969 95.3499 27.1199C95.3619 27.1559 95.3759 27.1949 95.3899 27.2299L96.1929 29.5149C96.2439 29.6679 96.2959 29.8289 96.3529 29.9579C96.4029 30.0749 96.4829 30.1209 96.6239 30.1209H96.6679V30.2909H96.6479H96.6489ZM95.4129 30.2509C95.6279 30.2439 95.8399 30.2359 96.0489 30.2359C96.2509 30.2359 96.4409 30.2439 96.6309 30.2519V30.1599H96.6239C96.4739 30.1609 96.3719 30.1029 96.3179 29.9739C96.2619 29.8419 96.2079 29.6799 96.1569 29.5269L95.3539 27.2419L95.3169 27.1369C95.3119 27.1329 95.3139 27.1329 95.3099 27.1329H95.3019C95.2929 27.1329 95.2879 27.1359 95.2759 27.1379C95.1551 27.2136 95.0246 27.2724 94.8879 27.3129C94.8609 27.4789 94.7829 27.6969 94.7259 27.8589L94.0279 29.8629C94.0024 29.9484 93.95 30.0235 93.8785 30.077C93.807 30.1305 93.7202 30.1595 93.6309 30.1599H93.6239V30.2519C93.7739 30.2439 93.9239 30.2359 94.0759 30.2359C94.2449 30.2359 94.4159 30.2439 94.5839 30.2519V30.1599H94.5559C94.4129 30.1579 94.2149 30.1429 94.2099 29.9879C94.2099 29.9019 94.2639 29.7899 94.3059 29.6419L94.3249 29.6479L94.3059 29.6419L94.4499 29.1749H95.4669L95.6419 29.6929C95.6909 29.8339 95.7309 29.9509 95.7309 30.0139C95.7239 30.1479 95.5409 30.1579 95.4409 30.1599H95.4129V30.2519V30.2509ZM94.5209 28.9679L94.9379 27.6929H94.9619V27.7129H94.9569H94.9619V27.6929H94.9749L95.3899 28.9679H94.5199H94.5209ZM94.5729 28.9289H95.3369L94.9569 27.7589L94.5729 28.9289ZM94.9429 27.7189L94.9529 27.7149L94.9429 27.7179V27.7189ZM96.8419 27.4419C96.5149 27.4419 96.5019 27.5209 96.4359 27.8389H96.3049C96.3219 27.7169 96.3449 27.5949 96.3579 27.4679C96.3749 27.3449 96.3829 27.2229 96.3829 27.0969H96.4889C96.5229 27.2279 96.6319 27.2229 96.7489 27.2229H99.0009C99.1179 27.2229 99.2269 27.2189 99.2359 27.0879L99.3399 27.1059C99.3239 27.2229 99.3069 27.3409 99.2929 27.4599C99.2829 27.5769 99.2829 27.6949 99.2829 27.8129L99.1529 27.8609C99.1459 27.7009 99.1229 27.4409 98.8309 27.4409H98.1149V29.7649C98.1149 30.1019 98.2679 30.1409 98.4769 30.1409H98.5609V30.2719C98.3909 30.2719 98.0849 30.2549 97.8489 30.2549C97.5889 30.2549 97.2819 30.2719 97.1119 30.2719V30.1409H97.1949C97.4349 30.1409 97.5569 30.1189 97.5569 29.7739V27.4419H96.8419Z" fill="#1A1919"></path>
  <path fill-rule="evenodd" clip-rule="evenodd" d="M98.5602 30.2914C98.3902 30.2914 98.0832 30.2734 97.8492 30.2734C97.5892 30.2734 97.2832 30.2914 97.1122 30.2914H97.0922V30.1214H97.1952C97.4352 30.1164 97.5322 30.1134 97.5382 29.7744V27.4604H96.8422V27.4224H97.5762V29.7744C97.5762 30.1254 97.4342 30.1604 97.1952 30.1614H97.1312V30.2534C97.3032 30.2524 97.5962 30.2364 97.8492 30.2364C98.0772 30.2364 98.3692 30.2524 98.5412 30.2534V30.1614H98.4772C98.2672 30.1604 98.0972 30.1094 98.0972 29.7654V27.4224H98.8312C99.1242 27.4234 99.1612 27.6724 99.1712 27.8354L99.2652 27.8004C99.2652 27.6864 99.2652 27.5724 99.2752 27.4574C99.2862 27.3454 99.3032 27.2334 99.3192 27.1224L99.2532 27.1104C99.2332 27.2374 99.1102 27.2444 99.0012 27.2424H96.7282C96.6252 27.2444 96.5132 27.2374 96.4742 27.1154H96.4022C96.4018 27.2342 96.3931 27.3528 96.3762 27.4704C96.3642 27.5904 96.3432 27.7064 96.3262 27.8214H96.4202C96.4772 27.5164 96.5152 27.4174 96.8422 27.4224V27.4604C96.5182 27.4664 96.5262 27.5204 96.4542 27.8444L96.4512 27.8584H96.2832L96.2852 27.8374C96.3042 27.7144 96.3252 27.5914 96.3382 27.4664C96.3562 27.3434 96.3642 27.2224 96.3642 27.0974V27.0774H96.5022L96.5062 27.0914C96.5362 27.2014 96.6162 27.2024 96.7282 27.2044H99.0002C99.1202 27.2024 99.2092 27.2014 99.2172 27.0874V27.0664L99.2372 27.0704L99.3622 27.0904L99.3592 27.1094C99.3409 27.2261 99.3249 27.3431 99.3112 27.4604C99.3012 27.5774 99.3012 27.6954 99.3012 27.8134V27.8264L99.2892 27.8314L99.1352 27.8884V27.8624C99.1232 27.6984 99.1052 27.4604 98.8302 27.4604H98.1332V29.7654C98.1382 30.0954 98.2682 30.1184 98.4762 30.1224H98.5782V30.2914H98.5602ZM99.5022 30.1414H99.5632C99.7202 30.1414 99.8852 30.1194 99.8852 29.8914V27.6044C99.8852 27.3764 99.7202 27.3544 99.5632 27.3544H99.5022V27.2244C99.6722 27.2244 99.9332 27.2414 100.147 27.2414C100.366 27.2414 100.627 27.2234 100.833 27.2234V27.3544H100.772C100.614 27.3544 100.448 27.3764 100.448 27.6044V29.8924C100.448 30.1194 100.614 30.1414 100.772 30.1414H100.832V30.2724C100.623 30.2724 100.362 30.2554 100.143 30.2554C99.9292 30.2554 99.6732 30.2724 99.5022 30.2724V30.1414Z" fill="#1A1919"></path>
  <path fill-rule="evenodd" clip-rule="evenodd" d="M100.833 30.2912C100.623 30.2912 100.361 30.2732 100.143 30.2732C99.9304 30.2732 99.6734 30.2912 99.5034 30.2912H99.4834V30.1212H99.5634C99.7214 30.1192 99.8664 30.1052 99.8664 29.8922V27.6042C99.8664 27.3912 99.7214 27.3762 99.5634 27.3742H99.4834V27.2042H99.5034C99.6734 27.2042 99.9354 27.2212 100.147 27.2212C100.365 27.2212 100.627 27.2042 100.833 27.2042H100.851V27.3742H100.771C100.612 27.3762 100.469 27.3902 100.467 27.6042V29.8922C100.469 30.1052 100.612 30.1192 100.772 30.1222H100.852V30.2912H100.833ZM100.813 30.2532V30.1612H100.772C100.616 30.1612 100.43 30.1332 100.43 29.8922V27.6042C100.43 27.3622 100.616 27.3352 100.772 27.3352H100.813V27.2422C100.613 27.2442 100.36 27.2592 100.147 27.2592C99.9404 27.2592 99.6904 27.2442 99.5214 27.2422V27.3352H99.5634C99.7184 27.3352 99.9044 27.3622 99.9054 27.6042V29.8922C99.9054 30.1332 99.7184 30.1612 99.5634 30.1612H99.5214V30.2532C99.6894 30.2512 99.9364 30.2362 100.144 30.2362C100.355 30.2362 100.608 30.2522 100.814 30.2532H100.813ZM102.573 27.1582C103.503 27.1582 104.243 27.7352 104.243 28.6652C104.243 29.6702 103.523 30.3382 102.595 30.3382C101.67 30.3382 100.963 29.7082 100.963 28.7692C100.963 27.8612 101.666 27.1582 102.573 27.1582ZM102.639 30.1452C103.485 30.1452 103.633 29.3982 103.633 28.7612C103.633 28.1232 103.289 27.3512 102.564 27.3512C101.801 27.3512 101.574 28.0312 101.574 28.6162C101.574 29.3982 101.932 30.1462 102.639 30.1462V30.1452Z" fill="#1A1919"></path>
  <path fill-rule="evenodd" clip-rule="evenodd" d="M100.944 28.7707C100.942 28.556 100.982 28.3429 101.063 28.144C101.144 27.9451 101.264 27.7644 101.416 27.6125C101.567 27.4606 101.748 27.3407 101.947 27.2596C102.146 27.1786 102.359 27.1382 102.573 27.1407V27.1787C102.364 27.1758 102.155 27.2149 101.961 27.2939C101.766 27.3728 101.59 27.49 101.441 27.6384C101.293 27.7869 101.176 27.9635 101.097 28.158C101.018 28.3525 100.979 28.5609 100.981 28.7707C100.983 29.6997 101.679 30.3197 102.596 30.3197C103.515 30.3197 104.225 29.6607 104.226 28.6667C104.225 27.7467 103.496 27.1797 102.573 27.1787V27.1407C103.509 27.1407 104.261 27.7247 104.263 28.6667C104.262 29.6817 103.533 30.3567 102.596 30.3577C101.663 30.3557 100.946 29.7207 100.944 28.7707ZM101.555 28.6177C101.557 28.0307 101.785 27.3327 102.565 27.3327C103.305 27.3337 103.651 28.1207 103.652 28.7627C103.651 29.3997 103.501 30.1647 102.639 30.1647V30.1277C103.469 30.1277 103.613 29.3997 103.614 28.7627C103.614 28.1297 103.274 27.3727 102.564 27.3707C101.816 27.3707 101.594 28.0367 101.593 28.6177C101.593 29.3957 101.948 30.1277 102.639 30.1277V30.1647C101.915 30.1647 101.557 29.4047 101.555 28.6177V28.6177ZM107.183 29.4127L107.193 29.4047V27.7667C107.193 27.4087 106.943 27.3567 106.813 27.3567H106.717V27.2247C106.922 27.2247 107.123 27.2427 107.327 27.2427C107.507 27.2427 107.685 27.2247 107.864 27.2247V27.3557H107.8C107.617 27.3557 107.411 27.3907 107.411 27.9107V29.8977C107.411 30.0507 107.416 30.2037 107.438 30.3397H107.272L105.025 27.8317V29.6317C105.025 30.0117 105.099 30.1417 105.435 30.1417H105.509V30.2737C105.321 30.2737 105.134 30.2567 104.947 30.2567C104.75 30.2567 104.549 30.2737 104.353 30.2737V30.1427H104.414C104.716 30.1427 104.807 29.9367 104.807 29.5887V27.7487C104.808 27.6966 104.798 27.6449 104.778 27.5967C104.758 27.5485 104.729 27.5048 104.691 27.4681C104.654 27.4315 104.61 27.4027 104.562 27.3834C104.513 27.3641 104.462 27.3547 104.409 27.3557H104.353V27.2257C104.519 27.2257 104.689 27.2427 104.855 27.2427C104.985 27.2427 105.111 27.2247 105.243 27.2247L107.184 29.4127H107.183Z" fill="#1A1919"></path>
  <path fill-rule="evenodd" clip-rule="evenodd" d="M107.437 30.3563L107.257 30.3503L105.042 27.8803V29.6303C105.047 30.0103 105.105 30.1173 105.432 30.1213H105.527V30.2913H105.508C105.319 30.2913 105.132 30.2733 104.945 30.2733C104.75 30.2733 104.549 30.2913 104.351 30.2913H104.334V30.1213H104.413C104.7 30.1213 104.783 29.9353 104.787 29.5873V27.7473C104.787 27.6978 104.778 27.6487 104.759 27.6029C104.74 27.5571 104.712 27.5156 104.677 27.4808C104.641 27.446 104.6 27.4185 104.554 27.4C104.508 27.3816 104.459 27.3725 104.409 27.3733H104.334V27.2043H104.351C104.519 27.2043 104.689 27.2213 104.854 27.2213C104.983 27.2213 105.108 27.2043 105.256 27.2113L107.173 29.3713V27.7653C107.172 27.4183 106.939 27.3763 106.812 27.3733H106.697V27.2043H106.717C106.922 27.2043 107.123 27.2213 107.327 27.2213C107.505 27.2213 107.683 27.2043 107.864 27.2043H107.883V27.3743H107.798C107.618 27.3783 107.433 27.3943 107.429 27.9093V29.8963C107.429 30.0493 107.433 30.2023 107.454 30.3353L107.458 30.3563H107.437ZM107.271 30.3183H107.414C107.397 30.1783 107.389 30.0373 107.391 29.8963V27.9093C107.391 27.3843 107.611 27.3363 107.799 27.3353H107.846V27.2423C107.673 27.2433 107.501 27.2593 107.326 27.2593C107.128 27.2593 106.933 27.2433 106.736 27.2423V27.3353H106.812C106.947 27.3363 107.21 27.3953 107.21 27.7653L107.206 29.4163L107.197 29.4253L107.183 29.4393L105.242 27.2423C105.112 27.2423 104.986 27.2593 104.854 27.2593C104.693 27.2593 104.529 27.2433 104.37 27.2423V27.3353H104.409C104.463 27.3348 104.517 27.345 104.568 27.3655C104.618 27.386 104.664 27.4162 104.703 27.4545C104.742 27.4928 104.772 27.5384 104.793 27.5887C104.814 27.6389 104.825 27.6928 104.825 27.7473V29.5873C104.825 29.9373 104.727 30.1603 104.413 30.1613H104.37V30.2533C104.56 30.2523 104.754 30.2363 104.946 30.2363C105.128 30.2363 105.308 30.2523 105.489 30.2533V30.1613H105.433C105.091 30.1613 105.005 30.0113 105.005 29.6303V27.7813L107.271 30.3183ZM107.183 29.4113L107.197 29.3993L107.183 29.4113ZM107.173 29.4033V29.4013L107.17 29.3983L107.173 29.4033ZM108.565 29.6483C108.523 29.7963 108.47 29.9103 108.47 29.9883C108.47 30.1193 108.654 30.1413 108.797 30.1413H108.845V30.2723C108.512 30.251 108.179 30.251 107.846 30.2723V30.1413H107.871C108.042 30.1413 108.187 30.0413 108.251 29.8573L108.951 27.8533C109.007 27.6913 109.086 27.4733 109.111 27.3103C109.251 27.2633 109.425 27.1763 109.509 27.1233C109.521 27.1183 109.529 27.1133 109.543 27.1133C109.556 27.1133 109.564 27.1133 109.573 27.1283C109.587 27.1623 109.599 27.2013 109.613 27.2363L110.415 29.5213C110.467 29.6733 110.52 29.8353 110.577 29.9673C110.629 30.0893 110.721 30.1413 110.865 30.1413H110.892V30.2723C110.473 30.251 110.053 30.251 109.634 30.2723V30.1413H109.683C109.783 30.1413 109.953 30.1243 109.953 30.0143C109.936 29.9066 109.907 29.8012 109.866 29.7003L109.696 29.1933H108.706L108.566 29.6483H108.565ZM109.203 27.7133H109.194L108.788 28.9493H109.605L109.203 27.7133Z" fill="#1A1919"></path>
  <path fill-rule="evenodd" clip-rule="evenodd" d="M110.89 30.2919C110.693 30.2839 110.497 30.2739 110.289 30.2739C110.076 30.2739 109.858 30.2839 109.635 30.2919H109.616V30.1219H109.682C109.784 30.1219 109.934 30.0989 109.934 30.0149C109.917 29.9091 109.888 29.8057 109.847 29.7069L109.681 29.2129H108.718L108.584 29.6539C108.54 29.8039 108.488 29.9179 108.489 29.9889C108.489 30.0959 108.652 30.1229 108.796 30.1229H108.863V30.2929L108.843 30.2919C108.669 30.2839 108.491 30.2739 108.317 30.2739C108.16 30.2739 108.004 30.2839 107.847 30.2919H107.827V30.1219H107.871C108.034 30.1219 108.171 30.0289 108.234 29.8519L108.932 27.8469C108.988 27.6849 109.066 27.4679 109.105 27.2939C109.243 27.2436 109.376 27.1806 109.502 27.1059C109.513 27.1019 109.525 27.0959 109.543 27.0959C109.553 27.0951 109.562 27.0971 109.571 27.1017C109.58 27.1064 109.587 27.1133 109.591 27.1219L109.631 27.2319L110.433 29.5159C110.486 29.6689 110.538 29.8299 110.594 29.9599C110.646 30.0759 110.724 30.1219 110.864 30.1229H110.909V30.2929L110.889 30.2919H110.89ZM109.653 30.2529C109.869 30.2449 110.081 30.2369 110.289 30.2369C110.492 30.2369 110.681 30.2449 110.872 30.2529V30.1619H110.864C110.716 30.1619 110.614 30.1039 110.559 29.9749C110.502 29.8429 110.449 29.6809 110.397 29.5279L109.595 27.2429C109.582 27.2084 109.57 27.1737 109.558 27.1389C109.554 27.1339 109.554 27.1339 109.552 27.1339H109.543C109.533 27.1339 109.529 27.1369 109.519 27.1399C109.433 27.1929 109.259 27.2809 109.129 27.3139C109.103 27.4799 109.024 27.6979 108.967 27.8599L108.269 29.8639C108.244 29.9497 108.191 30.025 108.119 30.0787C108.048 30.1323 107.961 30.1615 107.871 30.1619H107.865V30.2519C108.015 30.2449 108.165 30.2369 108.317 30.2369C108.486 30.2369 108.658 30.2449 108.826 30.2529V30.1619H108.796C108.655 30.1589 108.456 30.1439 108.45 29.9889C108.451 29.9029 108.505 29.7909 108.548 29.6429L108.565 29.6489L108.548 29.6429L108.691 29.1759H109.708L109.883 29.6949C109.931 29.8349 109.971 29.9509 109.971 30.0149C109.965 30.1489 109.781 30.1589 109.682 30.1619H109.652V30.2529H109.653ZM108.762 28.9679L109.181 27.6939H109.203V27.7139L109.198 27.7149L109.203 27.7139V27.6939H109.216L109.629 28.9679H108.762ZM108.814 28.9299H109.577L109.197 27.7599L108.814 28.9299ZM109.185 27.7199L109.194 27.7159L109.185 27.7189V27.7199ZM111.99 29.8449C111.99 30.0199 112.111 30.0719 112.251 30.0899C112.43 30.1029 112.626 30.1029 112.828 30.0799C112.91 30.0704 112.989 30.0447 113.061 30.0043C113.133 29.964 113.196 29.9098 113.246 29.8449C113.316 29.7489 113.354 29.6259 113.381 29.5309H113.507C113.459 29.7789 113.398 30.0239 113.346 30.2729C112.963 30.2729 112.578 30.2559 112.195 30.2559C111.81 30.2559 111.427 30.2729 111.043 30.2729V30.1419H111.103C111.261 30.1419 111.431 30.1199 111.431 29.8489V27.6049C111.431 27.3769 111.261 27.3549 111.103 27.3549H111.043V27.2249C111.273 27.2249 111.501 27.2419 111.732 27.2419C111.955 27.2419 112.172 27.2239 112.395 27.2239V27.3549H112.285C112.12 27.3549 111.99 27.3599 111.99 27.5919V29.8449Z" fill="#1A1919"></path>
  <path fill-rule="evenodd" clip-rule="evenodd" d="M113.347 30.2921C112.962 30.2921 112.577 30.2741 112.195 30.2741C111.811 30.2741 111.428 30.2921 111.043 30.2921H111.024V30.1221H111.104C111.262 30.1191 111.411 30.1081 111.414 29.8491V27.6041C111.411 27.3911 111.262 27.3771 111.104 27.3741H111.024V27.2051H111.043C111.275 27.2051 111.503 27.2221 111.733 27.2221C111.954 27.2221 112.172 27.2051 112.396 27.2051H112.414V27.3751H112.286C112.117 27.3791 112.012 27.3711 112.008 27.5911V29.8451C112.01 30.0081 112.116 30.0521 112.253 30.0711C112.444 30.0836 112.635 30.0806 112.825 30.0621C112.986 30.0428 113.132 29.9608 113.231 29.8341C113.293 29.7397 113.337 29.6355 113.363 29.5261L113.366 29.5121H113.531L113.527 29.5351C113.477 29.7851 113.417 30.0281 113.365 30.2771L113.361 30.2921H113.347ZM113.331 30.2541C113.381 30.0171 113.438 29.7841 113.486 29.5491H113.396C113.37 29.6583 113.324 29.7621 113.262 29.8561C113.21 29.9232 113.145 29.9794 113.07 30.0212C112.996 30.0631 112.914 30.0899 112.829 30.1001C112.637 30.1196 112.443 30.1223 112.249 30.1081C112.107 30.0931 111.97 30.0321 111.97 29.8451V27.5901C111.97 27.3481 112.124 27.3351 112.287 27.3351H112.377V27.2421C112.162 27.2431 111.949 27.2601 111.732 27.2601C111.507 27.2601 111.286 27.2431 111.062 27.2421V27.3351H111.104C111.26 27.3351 111.45 27.3621 111.45 27.6031V29.8481C111.45 30.1311 111.26 30.1601 111.104 30.1601H111.063V30.2531C111.439 30.2531 111.817 30.2361 112.195 30.2361C112.575 30.2361 112.953 30.2521 113.331 30.2531V30.2541Z" fill="#1A1919"></path>
  <path fill-rule="evenodd" clip-rule="evenodd" d="M86.207 11.8052C86.207 7.7202 89.515 4.4082 93.596 4.4082C97.676 4.4082 100.984 7.7202 100.984 11.8052C100.984 15.8902 97.676 19.2022 93.596 19.2022C89.516 19.2022 86.207 15.8902 86.207 11.8052V11.8052Z" fill="#FFFFFE"></path>
  <path fill-rule="evenodd" clip-rule="evenodd" d="M98.0637 11.6607C98.0631 10.7619 97.7903 9.8843 97.2812 9.14352C96.7721 8.40274 96.0506 7.83349 95.2117 7.51072V15.8097C96.0506 15.4869 96.7721 14.9177 97.2812 14.1769C97.7903 13.4361 98.0631 12.5586 98.0637 11.6597V11.6607ZM92.0337 15.8077V7.51172C91.1957 7.835 90.4749 8.40413 89.9661 9.14439C89.4573 9.88466 89.1843 10.7615 89.1827 11.6597C89.1839 12.5579 89.4567 13.4348 89.9654 14.1751C90.474 14.9154 91.1947 15.4845 92.0327 15.8077H92.0337ZM93.6227 4.64572C91.7637 4.64704 89.9814 5.38673 88.6677 6.70208C87.3541 8.01743 86.6167 9.80072 86.6177 11.6597C86.6167 13.5184 87.354 15.3015 88.6674 16.6166C89.9809 17.9318 91.763 18.6714 93.6217 18.6727C94.5423 18.6725 95.4538 18.4909 96.3042 18.1383C97.1546 17.7858 97.9272 17.2692 98.578 16.6181C99.2287 15.967 99.7449 15.1941 100.097 14.3435C100.449 13.4929 100.63 12.5813 100.63 11.6607C100.631 9.80137 99.8928 8.01782 98.5788 6.70231C97.2648 5.3868 95.4821 4.64704 93.6227 4.64572V4.64572ZM93.6047 19.3347C89.3707 19.3547 85.8857 15.9207 85.8857 11.7397C85.8857 7.17072 89.3707 4.01072 93.6057 4.01172H95.5887C99.7727 4.01172 103.592 7.16972 103.592 11.7397C103.592 15.9197 99.7727 19.3347 95.5887 19.3347H93.6047Z" fill="#0069AA"></path>
  <path fill-rule="evenodd" clip-rule="evenodd" d="M76.0186 30.1426H76.0796C76.2366 30.1426 76.4026 30.1206 76.4026 29.8926V27.6056C76.4026 27.3776 76.2366 27.3556 76.0796 27.3556H76.0196V27.2256C76.1896 27.2256 76.4516 27.2426 76.6656 27.2426C76.8836 27.2426 77.1456 27.2246 77.3506 27.2246V27.3556H77.2886C77.1326 27.3556 76.9666 27.3776 76.9666 27.6056V29.8936C76.9666 30.1206 77.1326 30.1426 77.2886 30.1426H77.3506V30.2736C77.1406 30.2736 76.8786 30.2566 76.6606 30.2566C76.4476 30.2566 76.1906 30.2736 76.0196 30.2736V30.1426H76.0186Z" fill="#1A1919"></path>
  <path fill-rule="evenodd" clip-rule="evenodd" d="M77.35 30.2936C77.139 30.2936 76.877 30.2756 76.66 30.2756C76.447 30.2756 76.19 30.2936 76.019 30.2936H76V30.1236H76.08C76.238 30.1206 76.382 30.1076 76.384 29.8946V27.6066C76.382 27.3926 76.238 27.3786 76.08 27.3766H76V27.2066H76.019C76.19 27.2066 76.452 27.2236 76.665 27.2236C76.882 27.2236 77.143 27.2066 77.35 27.2066H77.37V27.3766H77.289C77.13 27.3786 76.985 27.3926 76.985 27.6066V29.8946C76.985 30.1076 77.13 30.1206 77.289 30.1246H77.369V30.2936H77.349H77.35ZM77.33 30.2556V30.1626H77.29C77.134 30.1626 76.948 30.1356 76.947 29.8946V27.6066C76.948 27.3646 77.134 27.3376 77.29 27.3376H77.332V27.2446C77.13 27.2446 76.878 27.2626 76.666 27.2626C76.459 27.2626 76.208 27.2456 76.039 27.2446V27.3376H76.08C76.235 27.3376 76.421 27.3646 76.421 27.6066V29.8946C76.421 30.1356 76.235 30.1626 76.08 30.1626H76.038V30.2556C76.208 30.2546 76.453 30.2386 76.66 30.2386C76.873 30.2386 77.125 30.2546 77.33 30.2556ZM113.456 27.1016C113.719 27.1016 113.916 27.3046 113.916 27.5626C113.917 27.6233 113.906 27.6836 113.883 27.7399C113.861 27.7962 113.827 27.8473 113.784 27.8902C113.741 27.9331 113.69 27.9668 113.633 27.9894C113.577 28.012 113.517 28.0229 113.456 28.0216C113.395 28.0229 113.335 28.012 113.279 27.9894C113.222 27.9668 113.171 27.9331 113.128 27.8902C113.085 27.8473 113.051 27.7962 113.029 27.7399C113.006 27.6836 112.995 27.6233 112.996 27.5626C112.996 27.3046 113.193 27.1026 113.456 27.1026V27.1016ZM113.456 27.9366C113.554 27.9347 113.647 27.8944 113.715 27.8243C113.783 27.7543 113.82 27.6602 113.819 27.5626C113.82 27.4649 113.783 27.3709 113.715 27.3008C113.647 27.2307 113.554 27.1904 113.456 27.1886C113.358 27.1904 113.265 27.2307 113.197 27.3007C113.129 27.3708 113.091 27.4648 113.092 27.5626C113.091 27.6602 113.129 27.7542 113.197 27.824C113.265 27.8939 113.358 27.934 113.456 27.9356V27.9366ZM113.227 27.8056V27.7836C113.283 27.7746 113.294 27.7766 113.294 27.7426V27.4016C113.294 27.3536 113.289 27.3366 113.229 27.3396V27.3156H113.464C113.545 27.3156 113.62 27.3546 113.62 27.4386C113.62 27.5066 113.575 27.5576 113.51 27.5766L113.587 27.6826C113.615 27.7234 113.648 27.7598 113.687 27.7906V27.8056H113.598C113.555 27.8056 113.518 27.7156 113.433 27.5936H113.383V27.7466C113.383 27.7766 113.393 27.7756 113.449 27.7836V27.8056H113.227ZM113.382 27.5626H113.436C113.496 27.5626 113.523 27.5186 113.523 27.4456C113.523 27.3726 113.481 27.3456 113.433 27.3456H113.383V27.5626H113.382Z" fill="#1A1919"></path>
  <mask id="mask0_511_14" style="mask-type:alpha" maskUnits="userSpaceOnUse" x="136" y="5" width="31" height="25">
    <path d="M136 5.01172H167V29.0117H136V5.01172Z" fill="white"></path>
  </mask>
  <g mask="url(#mask0_511_14)">
    <path d="M155.691 22.0538H147.309V7.05078H155.691V22.0538Z" fill="#6C6BBD"></path>
    <path d="M147.84 14.5518C147.84 13.1055 148.169 11.6782 148.803 10.3784C149.438 9.07861 150.36 7.94056 151.5 7.05078C149.812 5.72533 147.726 5.00644 145.58 5.00978C140.288 5.00978 136 9.28278 136 14.5518C136 19.8218 140.289 24.0938 145.58 24.0938C147.726 24.0974 149.812 23.3789 151.5 22.0538C150.36 21.1639 149.437 20.0257 148.803 18.7257C148.169 17.4257 147.84 15.9982 147.84 14.5518V14.5518Z" fill="#D32011"></path>
    <path d="M167 14.5518C167 19.8218 162.711 24.0938 157.42 24.0938C155.274 24.0972 153.189 23.3787 151.5 22.0538C152.64 21.1639 153.562 20.0257 154.197 18.7257C154.831 17.4257 155.16 15.9982 155.159 14.5518C155.16 13.1055 154.83 11.6781 154.196 10.3783C153.562 9.07849 152.639 7.94046 151.499 7.05078C153.188 5.72512 155.274 5.00623 157.421 5.00978C162.71 5.00978 167 9.28278 167 14.5518Z" fill="#0099DF"></path>
    <path d="M158.527 26.2929C158.639 26.2929 158.799 26.3139 158.922 26.3629L158.751 26.8809C158.641 26.8373 158.524 26.8159 158.405 26.8179C158.043 26.8179 157.862 27.0509 157.862 27.4689V28.8899H157.309V26.3569H157.857V26.6639C157.925 26.5477 158.024 26.452 158.141 26.3867C158.259 26.3214 158.393 26.289 158.527 26.2929V26.2929ZM156.482 26.8599H155.578V28.0049C155.578 28.2589 155.668 28.4289 155.945 28.4289C156.089 28.4289 156.27 28.3809 156.434 28.2859L156.594 28.7569C156.387 28.8863 156.147 28.9545 155.902 28.9539C155.247 28.9539 155.019 28.6039 155.019 28.0149V26.8599H154.503V26.3569H155.019V25.5879H155.578V26.3569H156.482V26.8599ZM149.399 27.3999C149.458 27.0349 149.681 26.7859 150.075 26.7859C150.431 26.7859 150.66 27.0079 150.719 27.4009H149.399V27.3999ZM151.294 27.6229C151.288 26.8329 150.799 26.2929 150.085 26.2929C149.34 26.2929 148.819 26.8329 148.819 27.6229C148.819 28.4279 149.362 28.9529 150.123 28.9529C150.506 28.9529 150.857 28.8579 151.166 28.5979L150.894 28.1899C150.684 28.3581 150.424 28.4514 150.154 28.4549C149.799 28.4549 149.474 28.2909 149.394 27.8349H151.283C151.288 27.7649 151.293 27.6969 151.293 27.6229H151.294ZM153.725 27.0029C153.484 26.8644 153.211 26.7898 152.933 26.7859C152.63 26.7859 152.449 26.8969 152.449 27.0829C152.449 27.2529 152.639 27.2999 152.879 27.3319L153.14 27.3689C153.694 27.4489 154.029 27.6819 154.029 28.1269C154.029 28.6089 153.603 28.9539 152.869 28.9539C152.453 28.9539 152.07 28.8479 151.767 28.6239L152.027 28.1949C152.214 28.3389 152.491 28.4599 152.874 28.4599C153.252 28.4599 153.454 28.3499 153.454 28.1529C153.454 28.0099 153.311 27.9299 153.007 27.8879L152.747 27.8509C152.177 27.7709 151.868 27.5169 151.868 27.1039C151.868 26.6009 152.284 26.2929 152.928 26.2929C153.332 26.2929 153.699 26.3829 153.965 26.5579L153.725 27.0029V27.0029ZM160.55 26.8169C160.442 26.8161 160.334 26.8361 160.233 26.8759C160.138 26.9147 160.051 26.9723 159.979 27.0454C159.906 27.1184 159.849 27.2053 159.811 27.3009C159.77 27.406 159.75 27.5181 159.751 27.6309C159.751 27.7529 159.771 27.8619 159.811 27.9619C159.849 28.0576 159.906 28.1445 159.979 28.2176C160.051 28.2906 160.138 28.3482 160.233 28.3869C160.331 28.4269 160.436 28.4469 160.55 28.4469C160.664 28.4469 160.77 28.4269 160.868 28.3869C160.964 28.3487 161.051 28.2914 161.124 28.2185C161.197 28.1456 161.254 28.0586 161.292 27.9629C161.333 27.8629 161.353 27.7529 161.353 27.6319C161.355 27.5191 161.334 27.407 161.293 27.3019C161.234 27.1544 161.131 27.0286 160.999 26.9418C160.866 26.855 160.709 26.8114 160.55 26.8169V26.8169ZM160.55 26.2929C160.748 26.2929 160.93 26.3269 161.099 26.3959C161.261 26.4586 161.409 26.5534 161.533 26.6745C161.658 26.7957 161.756 26.9407 161.823 27.1009C161.893 27.2639 161.927 27.4409 161.927 27.6309C161.927 27.8229 161.892 28.0009 161.823 28.1629C161.756 28.3232 161.658 28.4684 161.533 28.5897C161.409 28.711 161.261 28.8059 161.099 28.8689C160.925 28.9381 160.738 28.9728 160.55 28.9709C160.363 28.9727 160.177 28.938 160.002 28.8689C159.841 28.8049 159.695 28.7095 159.571 28.5883C159.447 28.4671 159.349 28.3225 159.281 28.1629C159.211 27.9948 159.176 27.8141 159.177 27.6319C159.173 27.3664 159.249 27.1057 159.396 26.8849C159.544 26.664 159.755 26.4934 160.002 26.3959C160.17 26.3269 160.352 26.2929 160.55 26.2929ZM146.166 27.6229C146.166 27.1779 146.459 26.8129 146.937 26.8129C147.395 26.8129 147.704 27.1629 147.704 27.6229C147.704 28.0839 147.395 28.4329 146.937 28.4329C146.459 28.4329 146.166 28.0689 146.166 27.6229ZM148.226 27.6229V26.3569H147.672V26.6639C147.496 26.4359 147.23 26.2929 146.869 26.2929C146.155 26.2929 145.597 26.8489 145.597 27.6229C145.597 28.3969 146.155 28.9529 146.869 28.9529C147.23 28.9529 147.496 28.8109 147.672 28.5829V28.8899H148.225V27.6229H148.226ZM145.106 28.8899V27.2999C145.106 26.7009 144.723 26.2979 144.106 26.2929C143.781 26.2879 143.446 26.3879 143.212 26.7429C143.036 26.4629 142.759 26.2929 142.371 26.2929C142.1 26.2929 141.833 26.3729 141.626 26.6689V26.3569H141.073V28.8899H141.631V27.4859C141.631 27.0459 141.876 26.8119 142.254 26.8119C142.621 26.8119 142.807 27.0509 142.807 27.4799V28.8899H143.366V27.4859C143.366 27.0459 143.622 26.8119 143.988 26.8119C144.367 26.8119 144.548 27.0509 144.548 27.4799V28.8899H145.106Z" fill="#110F0D"></path>
  </g>
  <path d="M251 25.0117L216 36.0117H249C249.53 36.0117 250.039 35.801 250.414 35.4259C250.789 35.0509 251 34.5422 251 34.0117V25.0117Z" fill="#FD6020"></path>
  <path fill-rule="evenodd" clip-rule="evenodd" d="M244.032 12.2015C245.895 12.2015 246.92 13.0315 246.92 14.5965C246.966 15.1565 246.801 15.7134 246.455 16.1569C246.11 16.6003 245.611 16.8979 245.057 16.9905L247.571 20.3985H245.616L243.474 17.0835H243.287V20.3985H241.704V12.2015H244.032ZM243.287 15.9775H243.753C244.777 15.9775 245.243 15.5175 245.243 14.6875C245.243 13.9515 244.777 13.4915 243.753 13.4915H243.287V15.9775ZM236.209 20.3985H240.679V19.0175H237.792V16.8075H240.586V15.4255H237.792V13.5835H240.68V12.2005H236.21V20.3975L236.209 20.3985ZM231.552 17.7285L229.41 12.2005H227.734L231.18 20.5825H232.018L235.464 12.2005H233.788L231.553 17.7265L231.552 17.7285ZM212.646 16.3465C212.646 18.6485 214.509 20.5825 216.837 20.5825C217.582 20.5825 218.234 20.3985 218.887 20.1225V18.2805C218.421 18.8335 217.769 19.2015 217.024 19.2015C215.534 19.2015 214.323 18.0965 214.323 16.6225V16.4385C214.23 14.9645 215.44 13.6755 216.93 13.5835C217.676 13.5835 218.42 13.9515 218.886 14.5035V12.6625C218.328 12.2935 217.583 12.2025 216.93 12.2025C214.51 12.0175 212.646 13.9525 212.646 16.3465V16.3465ZM209.759 15.3335C208.828 14.9645 208.549 14.7805 208.549 14.3195C208.642 13.7675 209.107 13.3065 209.666 13.3995C210.132 13.3995 210.597 13.6755 210.97 14.0435L211.808 12.9385C211.156 12.3855 210.318 12.0175 209.48 12.0175C208.176 11.9255 207.058 12.9385 206.965 14.2275V14.3195C206.965 15.4255 207.431 16.0695 208.921 16.5305C209.294 16.6225 209.666 16.8065 210.039 16.9905C210.319 17.1755 210.504 17.4515 210.504 17.8205C210.504 18.4645 209.945 19.0175 209.387 19.0175H209.294C208.937 19.0156 208.589 18.9102 208.291 18.714C207.994 18.5178 207.759 18.2394 207.617 17.9125L206.593 18.9255C207.152 19.9385 208.269 20.4905 209.387 20.4905C210.877 20.5835 212.087 19.4775 212.181 18.0045V17.7275C212.088 16.6225 211.621 16.0695 209.759 15.3335V15.3335ZM204.357 20.3985H205.941V12.2015H204.357V20.3985ZM197 12.2015H199.794C202.029 12.2935 203.799 14.1355 203.706 16.3465C203.706 17.5435 203.146 18.6485 202.216 19.4775C201.377 20.1225 200.353 20.4905 199.328 20.3985H197V12.2015ZM199.049 19.0175C199.794 19.1095 200.632 18.8335 201.191 18.3725C201.75 17.8195 202.029 17.0825 202.029 16.2545C202.029 15.5175 201.749 14.7805 201.191 14.2275C200.632 13.7675 199.794 13.4915 199.049 13.5835H198.583V19.0175H199.049Z" fill="black"></path>
  <path fill-rule="evenodd" clip-rule="evenodd" d="M223.636 12.0117C221.308 12.0117 219.352 13.8537 219.352 16.2487C219.352 18.5517 221.215 20.4857 223.636 20.5777C226.058 20.6697 227.92 18.7357 228.014 16.3407C227.92 13.9457 226.058 12.0117 223.636 12.0117V12.0117Z" fill="#FD6020"></path>
  <path d="M51.3 0H2.7C1.20883 0 0 1.20883 0 2.7V33.3C0 34.7912 1.20883 36 2.7 36H51.3C52.7912 36 54 34.7912 54 33.3V2.7C54 1.20883 52.7912 0 51.3 0Z" fill="#1F72CD"></path>
  <path fill-rule="evenodd" clip-rule="evenodd" d="M9.5526 12.5996L4.5 23.7803H10.548L11.2986 21.9983H13.0122L13.7619 23.7803H20.4192V22.4195L21.0132 23.7803H24.4566L25.0506 22.3907V23.7803H38.8953L40.5792 22.0433L42.156 23.7803L49.2669 23.7947L44.199 18.221L49.2669 12.5996H42.2658L40.6278 14.3042L39.1005 12.5996H24.0381L22.7439 15.4859L21.4209 12.5996H15.3846V13.9136L14.7132 12.5996H9.5526ZM30.2283 14.1872H38.1789L40.6116 16.8143L43.1217 14.1872H45.5535L41.8581 18.2192L45.5535 22.2062H43.011L40.5792 19.5485L38.0565 22.2053H30.2283V14.1872ZM32.1921 17.3129V15.8477H37.1529L39.3174 18.1904L37.0575 20.5457H32.1921V18.9464H36.5301V17.3138H32.1921V17.3129ZM10.7226 14.1872H13.671L17.0217 21.7688V14.1872H20.2527L22.8402 19.6232L25.2252 14.1872H28.44V22.2107H26.4852L26.469 15.9233L23.6178 22.2107H21.8691L19.0026 15.9233V22.2107H14.9796L14.2173 20.4116H10.0971L9.3357 22.2089H7.1793L10.7226 14.1872ZM10.8 18.7493L12.1581 15.5453L13.5135 18.7493H10.8Z" fill="white"></path>
  <path d="M364.273 16.5117C364.273 12.8377 366.005 9.57972 368.667 7.47172C366.637 5.87596 364.129 5.00949 361.547 5.01172C355.164 5.01172 350 10.1547 350 16.5117C350 22.8687 355.164 28.0117 361.547 28.0117C364.129 28.0143 366.637 27.1478 368.667 25.5517C367.296 24.4776 366.188 23.1052 365.427 21.5389C364.665 19.9725 364.271 18.2533 364.273 16.5117V16.5117Z" fill="#EB001B"></path>
  <path d="M387.367 16.5108C387.367 22.8678 382.203 28.0108 375.82 28.0108C373.125 28.0108 370.656 27.0848 368.7 25.5508C370.074 24.4789 371.183 23.107 371.945 21.5401C372.706 19.9732 373.099 18.2529 373.093 16.5108C373.093 12.8378 371.361 9.57877 368.699 7.47077C370.729 5.87451 373.238 5.00768 375.82 5.00977C382.204 5.00977 387.368 10.1848 387.368 16.5098L387.367 16.5108Z" fill="#F79E1B"></path>
  <defs>
    <clipPath id="clip0_511_14">
      <rect width="43" height="14" fill="white" transform="translate(279 10.9004)"></rect>
    </clipPath>
  </defs>
</svg>
