<svg xmlns="http://www.w3.org/2000/svg" width="153" height="23" viewBox="0 0 153 23" fill="none"><path d="M25 8.78477L15.9161 8.214L12.495 0L9.07397 8.214L0 8.78477L6.95967 14.4326L4.67588 23L12.495 18.2764L20.3142 23L18.0304 14.4326L25 8.78477Z" fill="#00B67A"></path><path d="M57 8.78477L47.9161 8.214L44.495 0L41.074 8.214L32 8.78477L38.9597 14.4326L36.6759 23L44.495 18.2764L52.3142 23L50.0304 14.4326L57 8.78477Z" fill="#00B67A"></path><path d="M89 8.78477L79.9161 8.214L76.495 0L73.074 8.214L64 8.78477L70.9597 14.4326L68.6759 23L76.495 18.2764L84.3142 23L82.0304 14.4326L89 8.78477Z" fill="#00B67A"></path><path d="M121 8.78477L111.916 8.214L108.495 0L105.074 8.214L96 8.78477L102.96 14.4326L100.676 23L108.495 18.2764L116.314 23L114.03 14.4326L121 8.78477Z" fill="#00B67A"></path><path d="M153 8.78477L143.916 8.214L140.495 0L137.074 8.214L128 8.78477L134.96 14.4326L132.676 23L140.495 18.2764L148.314 23L146.03 14.4326L153 8.78477Z" fill="#00B67A"></path></svg>