<?xml version="1.0" encoding="UTF-8"?>
<svg xmlns="http://www.w3.org/2000/svg" width="134" height="42" viewBox="0 0 134 42" fill="none">
  <path d="M18.5502 3L2.97015 17.1874C2.02851 18.0448 1.28155 19.0628 0.771927 20.1833C0.262304 21.3037 0 22.5046 0 23.7173C0 24.9301 0.262304 26.1309 0.771927 27.2514C1.28155 28.3718 2.02851 29.3898 2.97015 30.2472L3.24884 30.5011C4.17012 31.3389 5.4188 31.8094 6.7207 31.8094C8.02259 31.8094 9.27127 31.3389 10.1925 30.5011L16.9984 24.2998L16.7197 24.0326C16.2639 23.6171 15.7227 23.2875 15.127 23.0626C14.5312 22.8377 13.8927 22.722 13.2478 22.722C12.603 22.722 11.9644 22.8377 11.3687 23.0626C10.773 23.2875 10.2318 23.6171 9.77599 24.0326L18.5502 16.0412C20.4457 14.3102 21.5101 11.9653 21.5101 9.52058C21.5101 7.07589 20.4457 4.73096 18.5502 3Z" fill="url(#paint0_linear_508_3)"></path>
  <path d="M31.0316 13.9391L30.7384 13.6854C30.2828 13.27 29.7419 12.9404 29.1464 12.7156C28.551 12.4907 27.9128 12.375 27.2682 12.375C26.6237 12.375 25.9854 12.4907 25.39 12.7156C24.7945 12.9404 24.2536 13.27 23.798 13.6854L16.8078 20.0539L17.0863 20.3077C17.5419 20.7231 18.0828 21.0526 18.6783 21.2775C19.2737 21.5023 19.912 21.6181 20.5565 21.6181C21.2011 21.6181 21.8393 21.5023 22.4347 21.2775C23.0302 21.0526 23.5711 20.7231 24.0267 20.3077L15.459 28.1268C14.5178 28.9841 13.7712 30.0019 13.2618 31.1222C12.7524 32.2424 12.4902 33.4431 12.4902 34.6556C12.4902 35.8682 12.7524 37.0688 13.2618 38.1891C13.7712 39.3093 14.5178 40.3271 15.459 41.1844L31.0316 26.9968C31.9728 26.1395 32.7194 25.1216 33.2288 24.0014C33.7382 22.8812 34.0004 21.6805 34.0004 20.468C34.0004 19.2554 33.7382 18.0547 33.2288 16.9345C32.7194 15.8143 31.9728 14.7965 31.0316 13.9391Z" fill="url(#paint1_linear_508_3)"></path>
  <path d="M65.144 11.456V31H61.224V22.684H52.852V31H48.932V11.456H52.852V19.492H61.224V11.456H65.144ZM75.8903 31.252C74.397 31.252 73.053 30.9253 71.8583 30.272C70.6636 29.6 69.721 28.6573 69.0303 27.444C68.3583 26.2307 68.0223 24.8307 68.0223 23.244C68.0223 21.6573 68.3676 20.2573 69.0583 19.044C69.7676 17.8307 70.729 16.8973 71.9423 16.244C73.1556 15.572 74.509 15.236 76.0023 15.236C77.4956 15.236 78.849 15.572 80.0623 16.244C81.2756 16.8973 82.2276 17.8307 82.9183 19.044C83.6276 20.2573 83.9823 21.6573 83.9823 23.244C83.9823 24.8307 83.6183 26.2307 82.8903 27.444C82.181 28.6573 81.2103 29.6 79.9783 30.272C78.765 30.9253 77.4023 31.252 75.8903 31.252ZM75.8903 27.836C76.5996 27.836 77.2623 27.668 77.8783 27.332C78.513 26.9773 79.017 26.4547 79.3903 25.764C79.7636 25.0733 79.9503 24.2333 79.9503 23.244C79.9503 21.7693 79.5583 20.64 78.7743 19.856C78.009 19.0533 77.0663 18.652 75.9463 18.652C74.8263 18.652 73.8836 19.0533 73.1183 19.856C72.3716 20.64 71.9983 21.7693 71.9983 23.244C71.9983 24.7187 72.3623 25.8573 73.0903 26.66C73.837 27.444 74.7703 27.836 75.8903 27.836ZM92.7938 31.252C91.5244 31.252 90.3858 31.028 89.3778 30.58C88.3698 30.1133 87.5671 29.488 86.9698 28.704C86.3911 27.92 86.0738 27.052 86.0178 26.1H89.9658C90.0404 26.6973 90.3298 27.192 90.8338 27.584C91.3564 27.976 92.0004 28.172 92.7658 28.172C93.5124 28.172 94.0911 28.0227 94.5018 27.724C94.9311 27.4253 95.1458 27.0427 95.1458 26.576C95.1458 26.072 94.8844 25.6987 94.3618 25.456C93.8578 25.1947 93.0458 24.9147 91.9258 24.616C90.7684 24.336 89.8164 24.0467 89.0698 23.748C88.3418 23.4493 87.7071 22.992 87.1658 22.376C86.6431 21.76 86.3818 20.9293 86.3818 19.884C86.3818 19.0253 86.6244 18.2413 87.1098 17.532C87.6138 16.8227 88.3231 16.2627 89.2378 15.852C90.1711 15.4413 91.2631 15.236 92.5138 15.236C94.3618 15.236 95.8364 15.7027 96.9378 16.636C98.0391 17.5507 98.6458 18.792 98.7578 20.36H95.0058C94.9498 19.744 94.6884 19.2587 94.2218 18.904C93.7738 18.5307 93.1671 18.344 92.4018 18.344C91.6924 18.344 91.1418 18.4747 90.7498 18.736C90.3764 18.9973 90.1898 19.3613 90.1898 19.828C90.1898 20.3507 90.4511 20.752 90.9738 21.032C91.4964 21.2933 92.3084 21.564 93.4098 21.844C94.5298 22.124 95.4538 22.4133 96.1818 22.712C96.9098 23.0107 97.5351 23.4773 98.0578 24.112C98.5991 24.728 98.8791 25.5493 98.8978 26.576C98.8978 27.472 98.6458 28.2747 98.1418 28.984C97.6564 29.6933 96.9471 30.2533 96.0138 30.664C95.0991 31.056 94.0258 31.252 92.7938 31.252ZM106.68 18.708V26.212C106.68 26.7347 106.801 27.1173 107.044 27.36C107.305 27.584 107.734 27.696 108.332 27.696H110.152V31H107.688C104.384 31 102.732 29.3947 102.732 26.184V18.708H100.884V15.488H102.732V11.652H106.68V15.488H110.152V18.708H106.68ZM114.959 13.64C114.268 13.64 113.69 13.4253 113.223 12.996C112.775 12.548 112.551 11.9973 112.551 11.344C112.551 10.6907 112.775 10.1493 113.223 9.72C113.69 9.272 114.268 9.048 114.959 9.048C115.65 9.048 116.219 9.272 116.667 9.72C117.134 10.1493 117.367 10.6907 117.367 11.344C117.367 11.9973 117.134 12.548 116.667 12.996C116.219 13.4253 115.65 13.64 114.959 13.64ZM116.891 15.488V31H112.971V15.488H116.891ZM129.332 31L126.14 26.184L123.312 31H119.112L124.18 23.216L119.056 15.488H123.48L126.644 20.276L129.5 15.488H133.7L128.604 23.216L133.756 31H129.332Z" fill="#1E1616"></path>
  <defs>
    <linearGradient id="paint0_linear_508_3" x1="10.7551" y1="3" x2="6" y2="33.5" gradientUnits="userSpaceOnUse">
      <stop stop-color="#FCB396"></stop>
      <stop offset="1" stop-color="#E963D4"></stop>
    </linearGradient>
    <linearGradient id="paint1_linear_508_3" x1="23.2453" y1="12.375" x2="23.2453" y2="41.1844" gradientUnits="userSpaceOnUse">
      <stop stop-color="#FE2273"></stop>
      <stop offset="1" stop-color="#FE3964"></stop>
    </linearGradient>
  </defs>
</svg>
